<mxfile host="www.draw.io" modified="2019-11-28T15:54:19.762Z" agent="Mozilla/5.0 (X11; Linux x86_64) AppleWebKit/537.36 (KHTML, like Gecko) Ubuntu Chromium/78.0.3904.97 Chrome/78.0.3904.97 Safari/537.36" etag="c9eprJRi_a-WfCi7N_Z2" version="12.3.3" type="github" pages="1">
  <diagram id="Q1uwMaLqs599eNIQeuDT" name="Page-1">
    <mxGraphModel dx="2861" dy="1014" grid="1" gridSize="10" guides="1" tooltips="1" connect="1" arrows="1" fold="1" page="1" pageScale="1" pageWidth="850" pageHeight="1100" math="0" shadow="0">
      <root>
        <mxCell id="0"/>
        <mxCell id="1" parent="0"/>
        <mxCell id="X3VEshdv0sgIEu_UB0-r-1" value="" style="whiteSpace=wrap;html=1;fontSize=16;fillColor=#f5f5f5;strokeColor=#B3B3B3;fontColor=#333333;" vertex="1" parent="1">
          <mxGeometry x="82.5" y="289" width="520" height="380" as="geometry"/>
        </mxCell>
        <mxCell id="X3VEshdv0sgIEu_UB0-r-2" value="" style="whiteSpace=wrap;html=1;fontSize=16;fillColor=#f5f5f5;strokeColor=#666666;fontColor=#333333;rounded=1;strokeWidth=2;" vertex="1" parent="1">
          <mxGeometry x="-152.5" y="60" width="520" height="100" as="geometry"/>
        </mxCell>
        <mxCell id="X3VEshdv0sgIEu_UB0-r-3" value="" style="whiteSpace=wrap;html=1;fontSize=16;fillColor=#F5F5F5;strokeColor=#B3B3B3;fontColor=#333333;" vertex="1" parent="1">
          <mxGeometry x="-130" y="289" width="190" height="380" as="geometry"/>
        </mxCell>
        <mxCell id="X3VEshdv0sgIEu_UB0-r-4" value="" style="whiteSpace=wrap;html=1;fontSize=16;fillColor=#f5f5f5;strokeColor=#B3B3B3;fontColor=#333333;" vertex="1" parent="1">
          <mxGeometry x="-380" y="289" width="190" height="380" as="geometry"/>
        </mxCell>
        <mxCell id="X3VEshdv0sgIEu_UB0-r-5" value="&lt;font style=&quot;font-size: 20px&quot;&gt;Tools&lt;/font&gt;" style="text;html=1;strokeColor=none;fillColor=none;align=center;verticalAlign=middle;whiteSpace=wrap;rounded=0;fontStyle=1;fontSize=14;fontColor=#1699D3;" vertex="1" parent="1">
          <mxGeometry x="-140" y="320" width="200" height="20" as="geometry"/>
        </mxCell>
        <mxCell id="X3VEshdv0sgIEu_UB0-r-6" value="&lt;font style=&quot;font-size: 20px&quot;&gt;Databases&lt;br&gt;&lt;/font&gt;" style="text;html=1;strokeColor=none;fillColor=none;align=center;verticalAlign=middle;whiteSpace=wrap;rounded=0;fontStyle=1;fontSize=14;fontColor=#1699D3;" vertex="1" parent="1">
          <mxGeometry x="-380" y="320" width="200" height="20" as="geometry"/>
        </mxCell>
        <mxCell id="X3VEshdv0sgIEu_UB0-r-7" value="" style="group;fontSize=16;" vertex="1" connectable="0" parent="1">
          <mxGeometry x="-100" y="80" width="160" height="60" as="geometry"/>
        </mxCell>
        <mxCell id="X3VEshdv0sgIEu_UB0-r-8" value="&lt;font style=&quot;font-size: 18px&quot;&gt;Hosted Python&amp;nbsp;&lt;br&gt;Notebook&lt;/font&gt;" style="rounded=1;whiteSpace=wrap;html=1;align=center;verticalAlign=top;strokeColor=#D72B32;fillColor=#ffffff;gradientColor=none;strokeWidth=2;" vertex="1" parent="X3VEshdv0sgIEu_UB0-r-7">
          <mxGeometry width="160" height="60" as="geometry"/>
        </mxCell>
        <mxCell id="X3VEshdv0sgIEu_UB0-r-9" value="" style="group;fontSize=16;" vertex="1" connectable="0" parent="1">
          <mxGeometry x="-377" y="60" width="174" height="80" as="geometry"/>
        </mxCell>
        <mxCell id="X3VEshdv0sgIEu_UB0-r-10" value="&lt;span style=&quot;font-size: 18px&quot;&gt;Local programming environment&lt;/span&gt;" style="rounded=1;whiteSpace=wrap;html=1;verticalAlign=middle;strokeColor=#666666;gradientColor=none;strokeWidth=2;" vertex="1" parent="X3VEshdv0sgIEu_UB0-r-9">
          <mxGeometry width="174" height="80" as="geometry"/>
        </mxCell>
        <mxCell id="X3VEshdv0sgIEu_UB0-r-11" value="" style="group;fontSize=16;fillColor=#F5F5F5;strokeColor=none;rounded=1;verticalAlign=bottom;labelBackgroundColor=#E6E6E6;" vertex="1" connectable="0" parent="1">
          <mxGeometry x="-380" y="200" width="980" height="40" as="geometry"/>
        </mxCell>
        <mxCell id="X3VEshdv0sgIEu_UB0-r-12" value="" style="group;fillColor=none;strokeColor=#666666;rounded=1;strokeWidth=2;labelBackgroundColor=#E6E6E6;" vertex="1" connectable="0" parent="X3VEshdv0sgIEu_UB0-r-11">
          <mxGeometry width="979.9999999999994" height="40" as="geometry"/>
        </mxCell>
        <mxCell id="X3VEshdv0sgIEu_UB0-r-13" value="&lt;font style=&quot;font-size: 18px&quot;&gt;Policy Enforcement Point&lt;/font&gt;" style="rounded=0;whiteSpace=wrap;html=1;strokeColor=none;fillColor=none;" vertex="1" parent="X3VEshdv0sgIEu_UB0-r-12">
          <mxGeometry width="979" height="40" as="geometry"/>
        </mxCell>
        <mxCell id="X3VEshdv0sgIEu_UB0-r-14" value="" style="group;fontSize=16;verticalAlign=top;strokeColor=#DEAA3D;strokeWidth=2;fillColor=#ffffff;rounded=1;" vertex="1" connectable="0" parent="1">
          <mxGeometry x="-365" y="559.5" width="160" height="60" as="geometry"/>
        </mxCell>
        <mxCell id="X3VEshdv0sgIEu_UB0-r-15" value="&lt;font style=&quot;font-size: 18px&quot;&gt;Metadata &lt;br&gt;catalog&lt;/font&gt;" style="rounded=0;whiteSpace=wrap;html=1;strokeColor=none;fillColor=none;" vertex="1" parent="X3VEshdv0sgIEu_UB0-r-14">
          <mxGeometry width="160" height="60" as="geometry"/>
        </mxCell>
        <mxCell id="X3VEshdv0sgIEu_UB0-r-16" value="" style="shape=image;imageAspect=0;aspect=fixed;verticalLabelPosition=bottom;verticalAlign=top;fillColor=none;fontSize=14;align=center;image=data:image/png,iVBORw0KGgoAAAANSUhEUgAAAG4AAABxCAYAAAA025a1AAAPvklEQVR4Xu2bCXRN1xrH/wmJJI1EiEsiETGWV/RRSvBMETNFYx4fbUh4xExVpFrDMzWrYoiqqYbSxDInBOlD2lJBo4qYIgSRQdI0I8lb3z7OcW8Szh05t917Laurufue893vd755H4vi4uJi8GV2GrDg4MyOGROYgzNPbhycmXLj4Dg4c9WAmcrNYxwHZ6YaMFOxucVxcGaqATMVm1scB2emGjBTsbnFcXBmqgEzFZtbHAdnphowU7G5xXFwZqoBMxWbWxwHZ6YaMFOxucVxcGaqATMVm1scB2emGjBTsbnFcXBmqgEzFZtbnILAFWVnoSDlIZ6mpUpSlbO3h23DJqWk5ODeMLjc33/FH6dPICc2GgXX44DiZ5JExbkpqDhgOlQTZiJxTDfY+3wIh849YVOnAT9X+Sa4FRfks9vm30tEom9TWFRwAKxsYVHOWhDH0hIoKmL/9fzuFNIjtiNj3RxhHwDrBi04uNcN7mnaY9ybPgZuyzch71YC7o/vDEsnj1JiFGUkosrUEFTxHYUbPZpKIAlo8bMCDu51gvvj9HE8mDUCxXkZaHA+l1nS4y/GlQZXVARL+4rw3HEST44eKHMPj3GviRyDtHA4LBw8YNPYCzVX70DKhi/xZNNiWNg5aUhRlHYNqs92o1LXPrgzqjsKk2/BwspGYw8H9xrAidAsneqhOC8TlQMWwnnYx0j+fAayj2yHha0Qu2gVF+bBuvY7qLXpIJ5E7cejuYPKdKUcnInBMfc4cygsbBxZskGxyzXkICq27Yw7Y3qh4NZlDWt6duca3HaegX0LrzI/F8Xl4EwMjsG5HidZFblBj/BrsKldHzf7eaEoM1XIIp9bm+hGJeAl3CjbWFTEkxMTc8Oj1YuRueNLIY4VFaEoM4klJlRs3/yg5YtskXioQb07cSjyLsRouFERGrlbbnEmJqcepyh+WbnWhufOE8i7dR13x/gItZulJYpzs2DffRhc5y0DFeVJ47rBooK9ZI0StPxsqOav4+BMxY1cHcUxdUBkKY5Dp6DaxDnIPheL5Mn9JEukz2p+e4q50HufTEROTISmtZG1ZiSgRpgQ/7jFmYAcdUaSpo5hKT8V3Inj+rJYRnBUQRtYmk+WmBL8EQNHCYvT+MVQfTRFAD28nZTMiJb27G4CPA5cYn1LylI5OBOAI2uijgjFMlosXsXHAk8LUHNbDLMqqYazcYSlozM8t0XC0t6hVIlA7pVW7YhzKF+lKjIO7EHK/IEcnAm4IXV7GNKW+6H+z3mwsK6AhysWICt8LbOuuocvsb+JNRw1lavOWQ2n3r4sYUlo5wiq98S4V05VCx5f72PQ1EsLbnEmIEcxKvu7UNT9OYUpnCUos/vCts0Q5j4lK4w7zhrGHuvDGUwCnh76KQNcnJPBPqOeJl2DEpa7Q5tKUDk4E4Aj15gTuVOKSRS3aApQacx8lpjQutmnOZ7evyIV4+rlAcVCm2ad4RocwqCxuDeig0aWycGZABxZ2MOAvqixOZpllpSg3PZtg6qzlrPEhJKX6+/bwK7Tv+G+YiOTQIpdtirYtu6FGsGrWMwjaPenDMGzzDSNDgsHZwJwzKL6ecFpRAAq9x8mucaqAbNZVkggb7yvQq2jQgeFQCb6DUD+xUN4q0cAagStYK6T9iVNHITCu1dflAY01nldBXhh4VMN9VhZlTeRuoxz2Vs3b+OTOQtQw80Vi5cuhD7yUmaZFbWXFdS0KEFxHh0gxauM8G3SZ5R03B/tDYfR06W/ketM/OiDF9Ced11omEq1oEksLv7Xy7h0MR7Ho2Nw48YtpKdmIuVBGvsBKpcqqOzsCDc3V/Ts1Q1N322Mxk3eMY7GjXQVAlenbiM0a9wcP52P0QsciULJBk0BaFFywY4cWFdgdZhDex8GkayNRjd2bbpI8U+sA6nlhfLWKM5KZOMg58lfoJJPb+ZCjQou9sxPCJr3BS7+cgWp2cnP1VgJ7ionVHS0Z///R2Y2klIeAxCs0Nm+Mry7t8XceTMUA1AA54W2rd/BiR+O6A2OrIaUXHKp/52sLff3eFZ8iytp2ljkxAjZp3X91qg0dAKLjQRdfAiMAi41NQ1LFi3HilWbARSgbetm6OLTEa1at4SLS3W4uLpoyP4g+QGzxOijJxFz4gyuJNyGs70DVoV+juEjhxjJbvS/jLHAaSMBuVRqYYmLSok/D4ey0sFp8Fi89W4LCT7FvNTNocjav9lwi6P49fHYAGzethvuKheErF2Cdv9qA2fnKtrIDVLSmtAwbNmwG6nZ6YgI34J+/fto9V1TbXqd4NR/A00Scs+fgbP/XLzVtLlkYeQ60/ZsQXrYIqAwl7XDDLa4zxYsQlDwQjSq1xgHjnyH2nU89dLnt1t3IjBgHoN35vQReLVppdd1jPGlNwGOXCYtKh/UF/095b8zWc1n6eguTQsMAkdJSJOmXeBsb4cTZ/YZHKPoIfhqxcY37jLfBLiSDxy50NQ1i5B36hAsq7lI5y3prCUtg8AJ1rYM0wLHY/nKxQY/7OR29Um9Db5xiQu8SXCUfT4OXcI6L1aNmqFcFReUd60F61p1WRZqpaoOK1d3w8ANGTgKu/bsf+Ou7a8CjpIPAicAckG5ig5SnCv5G/W2OLKOTu2742r8LaO4SWMon7JbylgfPHiIP//MQbVqKlSvXg3uNd11smRdLI70kJmZycR/WUKmzR65309Qn2ZmIC/hKvITftPf4pQCjuQ4eSIGO7fvwdmfLuBKQjwAYYbFlGlfG17tm6Nrd28MHDRAq2xXF3AU53t2GYjOXdshbGOo9ICQXOfO/oKI8H24fy8Z16/eRLFFIY4eP/xKGajGK8rPR2HKA+TduIaCxBvIvxqPwvt38PTuBaAoDxa2Kv3BkVIEV3kYZ04feCNZoNia2rXnIB21YeVIm/YtWKuKVlpq+nOYt1nB36zxP/DV2uWysuoKrknT9hjs2wtbt29k4Oj7gZNnYf+hY/QiAPtHdSp1jX6IPfJKcJSUZP/vKPIu/4L8X48zUCwZsVW9eL/A0tIwcGIpEBz0KeYvmCtn7Ub9nLo0fbsNQ2p2FhrV88SceYHo1sOnlFLIfcadv4BlS0IQHRMLIAehq0PgHyC0ospauoPrgsG+Pti5ewtIrjZt+7FMOzU7B8FBk+DdpRNz2Q6ODlpZvCgTWV9+0h3k372DvMtxGjD1jnF0cbEcaFTPXfZJMiY1QTmtAVSCv99oBH8+TyuFUKEfMNGPiRK6ev1L4ekDzt9vMPr264mu3XoDsIO/30it5dJFN1SM01s+BoGjGwaMD8Sa9VvRp2dnfL93h05JgC4Ci3vJghp6tmSFenDQDJ0tfW/EfvQfQPCeICryAHy6epcSQ1dwndr0RU1PF+TlFeBKQhJCVwe/0qJf9rvFltbT9FTYNW/NUn/KMC0q2KCCm4dGhmkwOFJk1059ERd/kzVlly5bKBtD9AFG36GAP2XSDKxZ/y1Gj+iPTVvX63UpwfKC0KxxHUSd2FfKWvUBR/GLJiCTpo3V+WEq+SMozj1eOQ/5507CoiKFSBtY2DjBqubbbIpQdXSA4RZHN6Uf6jfuP4iOOS11+2lkQ+2v+g3qlVKuo6OjXpYpuMjuLAmJ++2UVu7xZWTFGjR09dJS1qEPOFu7CvCoUwN79+8ySC5RXnKJNEnPvXQW1p71UMGjDhvCirWdwRYn3oisYUPYNwgN+Zp1+4Fs5uud7SuxbMrGRnjb0s7eFpUrO8HNrQaqVa/KJgjNmv9Tqx8ruuXQ1Yv1ckXqEMXkhlxcSavTBxxdO3jJLIPl0taFGA2cegyiLO5o1HFcunAZyfcfSUNUaU92zvNai1Jd+meD0SNGYur0SS/td5IyO3j1ZJeIiT2kdzNbXTF9ew3E/kOnEBW5TSPW6QNOm1RfWyja7DM6uLJuSnFQfWVlZuHhw0fMxf4YexZr1u9iczwgHdMCZ5d5XOBoVDS6dqO0eyRLu42xhFg3GdMCp2j0WnUFR412KgfEOs4Yssld47WAkxNCdLNLPvsSSSmPysxQxVT+VWm83H1Kfi6UMx3h3aEVjp08IH3MwemoSVLk6OHjERd/DcFBgRrZ2fSpc7Bi1RJERR4rM4XX8VZsOwHq3X0QO05x99EVDk4fJYrfEXt/SSkZuHkjVoplpgBHLry9V3cWg5PTr0mZLrc4PQkKkNZBPVUXwVHT1lhHG9QTHm5xesJS/5qYiPj7TUHoulXsIzGRMGZfVKgLe8K7gxePcUbg9rwH2g7eHdpKChVg9kafnr2x7+BuY9xGehh4VmkUdeJ5h13TEtTj0c8Xo41Yx51EVOROg+q4v205UJK30AgeVKq+EuJcGIKDphncDxQ7J2UVzn/55ITiDh14NVayIAIUB7QR4Rs1ri3UXe1ZG81QqzNmr9KsLE5MIOhoQNiWVUaDR9b28ahAUNO2rEayYHVfY7BvD707KOJ0gKYZZTWF/xYWR+MRWjTp9Z/op1Wz+GWhUIRGk+OI8PVlPgxirLuScFMvl/niHlkvPXLxlwdHAEgRkyfMRlLKbbirPLFo2acYNMRXp7GNeAydajfhIXj1gFRsVdE5Ev0m4DbYtuWbl76nINZ3VatVLnNep/7giacAzLJXSVYwY+pcbN4Wxo4TAOXh7zcc3j4dUbdubbzd8G2N0090nI2O0dGrWIcORmLXnq10Hosd+IkI36SV2xUVRvDcVVXZA1PWmRPxFNjC4KU4/eNpNo2QK+LpOx/2G8omB+RJxPM04sktmjGKR/HMGpz4BFKm9lXIWnbyS3yNShjb2KFRvTpsm/CaFc3rXiyy1HEThuvsal88MN+zQ0A0Hmrb+j32sNC6l5Ss8cqXdwdvrAxZrNVReXFoS9ekMzU0T6QeKpDKJhjiyW0BXDsM9u1j/tMBcjWRkcfwW/zvuH7tBtLTMvD4UTpyc/I1Xmxs2KgBU6Iub/eUFR9JyWRFJ6NPIS7+vMa5ykb1WqBlq39iyDBfdOzUQScXTtddunglLpy7zG5LrtOtpiuav/cu5nwyk12LwPmPD8T7rd7T++1Vfcpfk4911E/xqguo7/GFV/1IskCa9akvXY/Elbx+SfnLklt8Vfp1vvdgcnD6PE38O/Ia4ODkdaTIHRycIrHIC8XByetIkTs4OEVikReKg5PXkSJ3cHCKxCIvFAcnryNF7uDgFIlFXigOTl5HitzBwSkSi7xQHJy8jhS5g4NTJBZ5oTg4eR0pcgcHp0gs8kJxcPI6UuQODk6RWOSF4uDkdaTIHRycIrHIC8XByetIkTs4OEVikReKg5PXkSJ3cHCKxCIvFAcnryNF7uDgFIlFXigOTl5HitzBwSkSi7xQHJy8jhS5g4NTJBZ5oTg4eR0pcgcHp0gs8kJxcPI6UuSO/wPbsJuY0yDKOwAAAABJRU5ErkJggg==;" vertex="1" parent="X3VEshdv0sgIEu_UB0-r-14">
          <mxGeometry x="120" y="20.5" width="32" height="33" as="geometry"/>
        </mxCell>
        <mxCell id="X3VEshdv0sgIEu_UB0-r-17" value="" style="group;fontSize=12;rounded=1;verticalAlign=middle;strokeColor=#666666;strokeWidth=2;fillColor=#ffffff;" vertex="1" connectable="0" parent="1">
          <mxGeometry x="-365" y="460" width="160" height="60" as="geometry"/>
        </mxCell>
        <mxCell id="X3VEshdv0sgIEu_UB0-r-18" value="&lt;font style=&quot;font-size: 18px&quot;&gt;Gridded climate &lt;br&gt;data&lt;/font&gt;" style="rounded=0;whiteSpace=wrap;html=1;strokeColor=none;fillColor=none;" vertex="1" parent="X3VEshdv0sgIEu_UB0-r-17">
          <mxGeometry width="160" height="60" as="geometry"/>
        </mxCell>
        <mxCell id="X3VEshdv0sgIEu_UB0-r-19" value="" style="shape=image;imageAspect=0;aspect=fixed;verticalLabelPosition=bottom;verticalAlign=top;fillColor=none;fontSize=14;align=center;image=data:image/jpeg,/9j/4AAQSkZJRgABAQAAAQABAAD/2wCEAAkGBwgHBgkIBwgKCgkLDRYPDQwMDRsUFRAWIB0iIiAdHx8kKDQsJCYxJx8fLT0tMTU3Ojo6Iys/RD84QzQ5OjcBCgoKDQwNGg8PGjclHyU3Nzc3Nzc3Nzc3Nzc3Nzc3Nzc3Nzc3Nzc3Nzc3Nzc3Nzc3Nzc3Nzc3Nzc3Nzc3Nzc3N//AABEIAIIAtAMBIgACEQEDEQH/xAAcAAEAAQUBAQAAAAAAAAAAAAAABgECAwQFBwj/xABEEAABAwMABgcFBQUFCQAAAAABAAIDBAURBhITITFBB1FTYXGBkhQVIpHRMkJSk7EjM1VioRY1weHwJDZDRWR0lKKy/8QAGwEBAAIDAQEAAAAAAAAAAAAAAAIEAQMFBgf/xAAwEQACAQMCBAMGBwEAAAAAAAAAAQIDBBESMQUTIUEiUWEGFlJTcYEUMkKhscHwI//aAAwDAQACEQMRAD8A9xREQBERAEREAREQBEVrjgLDBQkDkgdlc69V5oqUbJuvUynZws/E4/QZK5tinmt9SLbWTPn2uZIZn8SeLmnz3jxxyVeVzTjUVKT8TJaXjJJQqqwcFerCIhERZAREQBERAEREAREQBERAEREAREQBERAFjlcGsJOMDfklXOK4V/qdu5lrgd8Uw1pnfhj5jz4ea0160aNNzlsjKWX0NSKV1xrn1z87FuY6Zp/Dzd5/4d6y11MZ6ciN2zlYQ+J44tcOC2I42xxhjBhoAAHUAruHFfNK/EKlW65+euehdUEo4Nq013ttGyRw1ZAdWRn4HDj/AFXRUWEnuu5CryfZaghtQOp3Br/0B7lJQ8FfQ+H3cbqgqi+/1Kk44eDIioFVXiAREQBERAEREAREQBERAEVCcKzaN/EPmsZBkVFZtG9YVS9o4kIC5Mq3I61QuB4EIDWr6tlHTSTynDWDPeTyA71xLfDIBJU1O6pqXa8gznV6mg9QStm95XMxAj2Okdl3VJJxHp/UKkz556mKioXBszgXySlusI2+HM5xuXluMVat3WVlR+5YprStUjfHBUWAWm587wwd3sjfqhtVy/jTP/Fb9Vy17L3fxIlz4l1RFHNC+KVgcx41XA8wslgqpP2lBUuzNT/YcTvlj5O8etaVRDXW18c1VU+10ziGP1YAwsJO5248M8epLgHRGOupj/tFPv1Wn94zm36d+FbsY1+F3PKq9Yy8tjE8VI5RJ2bwrlrUdTFU08c0TgWSDLTlZtdv4gvYlYvRW6w5EKmsM8VnIL0Vmu3rCqHA8CgLkQIsgIiIAiIgMFZC6elmha7UdJG5od1EjGV4ZpboRcdFLM2vnvs9U0zNi2YL2n4uedbuXvR4Lz7pr3aGs/72H9SrNpUlGooruyMtiAaHaI3HSykrJob5PSCnlERDtd+tloOc6w61rdIbKy2aQSW8Vsz3U9DC3WbI5ocdU78A8VOug3+6ruP+rH/w1Q3pecW6c17sZ1aWI/8AqV0ITcrtxlsiP6SZaU6VWmbo+qKOjukb640rWtax519bdkZ45UZ6MrlVQyX6Jk8kk8lJGKdsr3OAOX5PHh/ktq+9Htrtmhst8gqax9UynbIGOc3UJOP5c43nmtTooANbfdwy2jj1SeI3v4Klczp0LOpOHXD/ALRKPWSTItZIZbhWR0r7nLSMfG55mc9xwQM8MjefFbFTV3PRa85obs6eaHVcXxSFzJOeoeOeGPNWaI2aPSG901qmkdEJopHB4GdVzW5Ge5bNqiptGNLmU2kFFFNFSzasgO5rRndKOsc/DK6DjDU+/TbBHsdjpVrKl2kFFKJZ4TJb45HRxyub8R7gVp0dmoqikhnn03bTyPaHPhc15LD1Z1t63umJ7ZNKKeSnIcx1C10ZbwI34Waz2zo3ltdM+63WKKucwbZhmIIdz5KEHpoRaz9lkdy7SikdbOjehjpbw64MkrMiqYXDWaTvHHguFYLDcL7bK2ro7lIJqV2PZnvcNoMZzrZ3fJSXTxlni6PbdBo1UtqLfFWAMe05353rm6FXu12nR+t9srGxVrKgvhgA+KZhGCPDeq9WNR2rlSWZJ916k10kdPoh0oqWXIWGsk2lPI1zoHvPxNeOLO/O/wCSh8UdZc9KX29twqYjVXGWFrxI4hvxuwcZ7uC3+ji2vuWk7ZmB7GU+vMZRwa4/ZGfM/Jc+yzsodMqWqrpmsiguTnzzEYaBrOy7wytsJ0+dUhH8ySb+vUjh4WTo3RukHR9fWNiuMsri0SNJeSydmfskEnG9SXpL0tuL6Czi2Ty0lNXwGZ748Av4fBnq3qP9KN/ob9pBBPaZHTxwU+ybI0ZEri7I1etdy/XOk0f0es1gvmjTq2NtI1zJnzhhDsbwNxwR4rLS/wCcpR6+QXdEWobXcKimpau0X8SVrhmSmNU6N8Bzu+0cOXuGiD7s6xUwv7Q24NBbIQc6wzuPywvDtJKPREW2nqrBWTGse4bSjmIJiHWTjIxu5r0zoZqq+q0bl9tkklgjnLaaSV2SW46+YznetN5DVS1+vlhmY7noQVVQcFVc4kEREAREQBcvSCx0F/oRRXSEzU+uH6oeW/EOByF1EWU8PKBxdH9HbZo5BLDaKcwxyv13gvLsnGM7+5aF70H0fvle+vuVE+WpewMc8SubkDhuBUoK0LlXMoKOSdwyR8LG/icdzR5ncoupKPiyEji36np66BujuzLqPZD2ka3Bn3WZ45OOPcuDPbrFoZR1NTSRmlNUBFJI573gAZ3nfwGT81IKON1NTyTVTgZpCZKh54A4/QBVtttiukNTVXCESQ1UeziieMjZdeP5t58MLzNC5rcSvHFSfJW/qb9KhHPchthuHRnY6uKut9WG1UTS0Sue88Rg7uCzX+79GmkFU2pulTHJM1uprNc5mR344ryfT/RebRW+y0hbmllJfTvPNueHlwUZ+S+k0eG06sVUhNlN1H5Hu1ZVdF9b7OKuq2ns8QhjzNJkMHAZzvWvqdEvaj86T6rxH/XBN3d8luXC0uimzGv0Pen3HoxfaI7S6paaKOXatj2j9zuvOcrSMfRNvJlI6zt5PqvElmo6Watqoqamj15pXBjGjmTwWHwuEFnmNDX6H0JorctHmVclBo3Mx1G74xqRn4H/AIS7nkbx4FYLloVo5FUNrZ6CR0LpHGoDZn/eOdfjyPLvXb0X0KprNosy17hUv/ayTN3EScjnu4fNbVDOauB8U7cTROMc7SODv88581844vOrw+8/F27elvr6lyGJx0sttGgujVqq2VdHbmbZv2HSPMgb3jWzg96694s1vvVKaa50zJ4+I1uLfA8R5LTsFQYHvtk7svhbrwE/eizu8xw8l3m7126Ny68VUjLOTU1joQ6Poz0UY4O92uJBzh07yD4jO9SykpoaSBsFNDHDEwYayMYAHgs2FVb5SlLdmAiIogIiIAiIgCIrS7CAo4gHio3LMblczKMmlpXFsfU+TgT5cFvX6skjibSUxIqan4GuH3G83eQWk4R263HZR5ZBHlrG88Bed47fcuCoU34pfsjdSjnxMxysNwro6CP900B9SRybnc3zP6KSxsa1oAAAA3AclzdH6QQUQkLmyS1H7WSQc3Hq7guqBuXQ4ZZK0oKC37/UhOWpkU6Q9FotKbDLTlo9qiBkpn43hw5eB4L5hrKaWkqZaedjmSxOLXscMEEL7IcF4z026Gj/AHjt8O8fDVtaPk/6+K9Rwq75cuXLZmipHPU8WRVPHxVF6fsaSu/C9n6DdEOOkddHvyWUjXDlzf8AqvO9A9GJdKdIIaIAinb8c7+TW/Ur6loqWKkgip6dgZFEwMY0cgFw+LXeFyYd9zZTj3MuAAuBfYfY6ht0YPgIDKluOLeTvJSIhY5ImyMc17Q5rhgg8wvLXFCNeDpy2ZYUnF5RHK+ORzWVNKQamndrxjOA/rbnqPBd221cVdRx1MJ+CQZHLHco9bs001TbtYvFKQGOP4SMhvkMLNRTutlxMZ3UtW74QODJfof1wvOcHuJW1eVlVe2xuqLUtSJMisDs8FeF6srhERAEREARFQoCmViqpo4IHzSuDWMaXFx5LI5R+7y+31otzN8EWH1LgeJ5M+o6sKtcXELem6k9kSjHLwYaIPqZpbjM0h9R+7b+CMfZHnxPet1wBbv4KoVV8wvLqdxWdSW7LsYqKwjUtc/uuqFG/IpJ3fsDyjcfu+B4jzUiaRjjlcKrhZUQPhk+y8YPd1HyVlNfqWgY2mvNXFTzNB1JJXaolb1jv617fgXEvxFHRN+JfwVqsMPoSHIWCrp4aqCSCoYJIpGlrmHgQeS5o0qsH8Yo/wA0IdKrARj3vR/mhd5SW+TVhnzl0iaKyaK36WnA1qSYmSmf/Lnh4hRmCN8srY42lz3uDWgcyvo7T3+zWldikozdqEVLBrU8hlHwu+hXnXRNZLbTXeS6X+tpYvZHujgjkkxrPHFw7uor0lvxSCtm5PxL/I0ypvUep9GuibNFrAyORo9tqMSVDuo4+yPBTHcuKNKrBj+96P8ANCr/AGqsH8Xo/wA0Lz1Ss6knKT6s24wdguHWtG7XBlvopKh/xEbmNHFzjwAWmdKrAf8Am9H+aFzzXQXy57WllbLRUhw1zT8L5OOe/AIx3kqje3kbahKo+xOMcvBmt1PJTU4E7g6d5L5XDm88fLqWSsp2VVO+F+QHjiOR4g+XFbCoV8yd1UlW5ufFuXMLGDJYq59VTmKoI9pgOpKMc+RHiF1hwUXqS6iqmXGHOW4ZO0fej6/EfplSSGRksbXxuDmOGWuHAhfSuGXsbu3U+/f6lOcdLMqIEXRIBERAEREBo3itFvt01SWl2oMAAZ3ncP1UZoLhQ00GJKpr5nHWleGn43Hfn/DwUyc0EHIBHUsewixuiZ6Quff2EbyChKWETjLT1I175t/b/wBCq++qDtx8ipKIY+zZ6Qq7GPs2ekLj+69t8TNnPZGDebef+OPkVQ3e3HjMD4tUo2MfZs9ITYxdmz0hSj7M0I7TY578iLC62ztGehPe1s7RnoUp2MXZs9ITYx9mz0hS93KXzJDnehFvets7VnoT3rbe1Z6FKdjH2bPSE2MfZs9IT3dpfMkY53oRb3tbO0Z6E97WztGehSnYx9mz0hNjH2bPSE93KXzJGec/Ii3vW2doz0Kou9vH2ZwPBpUo2MfZs9ITYx9mz0hYfs3Re82Oc/IjPvqg7cfIp76t/bj5FSbYx9mz0hNjH2bPSFBey9sv1Mc9kXfd7c9pa6YEEYIIO9ZdGbjFtpbdHIZI2DaQODTuYfuk9YP9MKR7GLsmekKrY2N+y1o8AujYcKhYybhJvJCdTUsFwKqqAKq65rCIiAIiIAiIgCIiAIiIAiIgCIiAIiIAiIgCIiAIiIAiIgCIiA//2Q==;" vertex="1" parent="X3VEshdv0sgIEu_UB0-r-17">
          <mxGeometry x="117.66666666666666" y="26.5" width="36" height="25.71428571428571" as="geometry"/>
        </mxCell>
        <mxCell id="X3VEshdv0sgIEu_UB0-r-20" value="&lt;font style=&quot;font-size: 20px&quot;&gt;Frontend&lt;/font&gt;" style="text;html=1;strokeColor=none;fillColor=none;align=center;verticalAlign=middle;whiteSpace=wrap;rounded=0;fontStyle=1;fontSize=14;fontColor=#1699D3;" vertex="1" parent="1">
          <mxGeometry x="36" y="70" width="200" height="20" as="geometry"/>
        </mxCell>
        <mxCell id="X3VEshdv0sgIEu_UB0-r-21" value="" style="group;fontSize=16;" vertex="1" connectable="0" parent="1">
          <mxGeometry x="-120" y="460" width="190" height="60" as="geometry"/>
        </mxCell>
        <mxCell id="X3VEshdv0sgIEu_UB0-r-22" value="&lt;font style=&quot;font-size: 18px&quot;&gt;Workflow &lt;br&gt;Engine / Job orchestration&lt;/font&gt;" style="rounded=1;whiteSpace=wrap;html=1;strokeColor=#DEAA3D;strokeWidth=2;" vertex="1" parent="X3VEshdv0sgIEu_UB0-r-21">
          <mxGeometry width="160" height="60" as="geometry"/>
        </mxCell>
        <mxCell id="X3VEshdv0sgIEu_UB0-r-23" value="" style="aspect=fixed;perimeter=ellipsePerimeter;html=1;align=center;shadow=0;dashed=0;fontColor=#4277BB;labelBackgroundColor=#ffffff;fontSize=12;spacingTop=3;image;image=img/lib/ibm/infrastructure/load_balancing_routing.svg;fontFamily=Helvetica;strokeColor=#DEAA3D;strokeWidth=2;fillColor=#66B2FF;" vertex="1" parent="X3VEshdv0sgIEu_UB0-r-21">
          <mxGeometry x="140" y="-14" width="28" height="28" as="geometry"/>
        </mxCell>
        <mxCell id="X3VEshdv0sgIEu_UB0-r-24" value="" style="endArrow=classic;html=1;shadow=0;fontSize=14;exitX=0.5;exitY=1;exitDx=0;exitDy=0;" edge="1" parent="1" source="X3VEshdv0sgIEu_UB0-r-10">
          <mxGeometry width="50" height="50" relative="1" as="geometry">
            <mxPoint x="-667" y="190" as="sourcePoint"/>
            <mxPoint x="-290" y="202" as="targetPoint"/>
          </mxGeometry>
        </mxCell>
        <mxCell id="X3VEshdv0sgIEu_UB0-r-25" value="" style="endArrow=classic;html=1;shadow=0;fontSize=14;entryX=0.716;entryY=0;entryDx=0;entryDy=0;entryPerimeter=0;strokeColor=#666666;strokeWidth=2;" edge="1" parent="1">
          <mxGeometry width="50" height="50" relative="1" as="geometry">
            <mxPoint x="120" y="160" as="sourcePoint"/>
            <mxPoint x="119.96399999999994" y="200" as="targetPoint"/>
          </mxGeometry>
        </mxCell>
        <mxCell id="X3VEshdv0sgIEu_UB0-r-26" value="" style="edgeStyle=orthogonalEdgeStyle;rounded=0;orthogonalLoop=1;jettySize=auto;html=1;" edge="1" parent="1" source="X3VEshdv0sgIEu_UB0-r-15" target="X3VEshdv0sgIEu_UB0-r-18">
          <mxGeometry relative="1" as="geometry"/>
        </mxCell>
        <mxCell id="X3VEshdv0sgIEu_UB0-r-27" value="" style="group;fontSize=16;strokeColor=#DEAA3D;strokeWidth=2;fillColor=#ffffff;" vertex="1" connectable="0" parent="1">
          <mxGeometry x="-120" y="559.5" width="160" height="60" as="geometry"/>
        </mxCell>
        <mxCell id="X3VEshdv0sgIEu_UB0-r-28" value="&lt;span style=&quot;font-size: 18px&quot;&gt;Virtualized&lt;br&gt;datasets&lt;br&gt;&lt;/span&gt;" style="rounded=0;whiteSpace=wrap;html=1;strokeColor=none;fillColor=none;" vertex="1" parent="X3VEshdv0sgIEu_UB0-r-27">
          <mxGeometry width="160" height="60" as="geometry"/>
        </mxCell>
        <mxCell id="X3VEshdv0sgIEu_UB0-r-29" value="Client" style="verticalLabelPosition=bottom;aspect=fixed;html=1;verticalAlign=top;strokeColor=none;outlineConnect=0;shape=mxgraph.citrix.laptop_1;fillColor=none;fontColor=none;fontSize=16;noLabel=1;" vertex="1" parent="1">
          <mxGeometry x="253.5" y="70.00000000000034" width="91" height="77" as="geometry"/>
        </mxCell>
        <mxCell id="X3VEshdv0sgIEu_UB0-r-30" style="edgeStyle=orthogonalEdgeStyle;rounded=0;orthogonalLoop=1;jettySize=auto;html=1;startFill=0;endArrow=none;endFill=0;strokeColor=#666666;strokeWidth=2;fontSize=17;fontColor=#004C99;" edge="1" parent="1" source="X3VEshdv0sgIEu_UB0-r-31">
          <mxGeometry relative="1" as="geometry">
            <mxPoint x="340" y="320" as="targetPoint"/>
          </mxGeometry>
        </mxCell>
        <mxCell id="X3VEshdv0sgIEu_UB0-r-31" value="&lt;font style=&quot;font-size: 18px&quot;&gt;Hydrological modeling&lt;/font&gt;" style="rounded=1;whiteSpace=wrap;html=1;strokeColor=#D72B32;strokeWidth=2;labelBackgroundColor=none;fillColor=#ffffff;" vertex="1" parent="1">
          <mxGeometry x="92" y="305" width="215" height="30" as="geometry"/>
        </mxCell>
        <mxCell id="X3VEshdv0sgIEu_UB0-r-32" value="&lt;font style=&quot;font-size: 18px&quot;&gt;Regridding&lt;/font&gt;" style="rounded=0;whiteSpace=wrap;html=1;strokeWidth=2;strokeColor=#DEAA3D;" vertex="1" parent="1">
          <mxGeometry x="92" y="416" width="215" height="30" as="geometry"/>
        </mxCell>
        <mxCell id="X3VEshdv0sgIEu_UB0-r-33" value="&lt;font style=&quot;font-size: 18px&quot;&gt;Earth Observations&amp;nbsp;&lt;/font&gt;" style="rounded=0;whiteSpace=wrap;html=1;strokeColor=#DEAA3D;strokeWidth=2;" vertex="1" parent="1">
          <mxGeometry x="92" y="478" width="215" height="30" as="geometry"/>
        </mxCell>
        <mxCell id="X3VEshdv0sgIEu_UB0-r-34" value="&lt;font style=&quot;font-size: 18px&quot;&gt;Ecological niches&lt;/font&gt;" style="rounded=0;whiteSpace=wrap;html=1;strokeColor=#DEAA3D;strokeWidth=2;" vertex="1" parent="1">
          <mxGeometry x="92.00000000000003" y="539" width="215" height="30" as="geometry"/>
        </mxCell>
        <mxCell id="X3VEshdv0sgIEu_UB0-r-35" value="&lt;font style=&quot;font-size: 18px&quot;&gt;Natural language search&lt;/font&gt;" style="rounded=0;whiteSpace=wrap;html=1;strokeColor=#DEAA3D;strokeWidth=2;" vertex="1" parent="1">
          <mxGeometry x="92.00000000000007" y="600" width="215" height="30" as="geometry"/>
        </mxCell>
        <mxCell id="X3VEshdv0sgIEu_UB0-r-36" value="" style="group;rounded=1;verticalAlign=middle;strokeColor=#DEAA3D;strokeWidth=2;fillColor=#ffffff;" vertex="1" connectable="0" parent="1">
          <mxGeometry x="369.9236641221374" y="355" width="215" height="30" as="geometry"/>
        </mxCell>
        <mxCell id="X3VEshdv0sgIEu_UB0-r-37" value="" style="group" vertex="1" connectable="0" parent="X3VEshdv0sgIEu_UB0-r-36">
          <mxGeometry width="215" height="30" as="geometry"/>
        </mxCell>
        <mxCell id="X3VEshdv0sgIEu_UB0-r-38" value="&lt;font style=&quot;font-size: 18px&quot;&gt;Climate indicators&lt;/font&gt;" style="rounded=0;whiteSpace=wrap;html=1;strokeColor=none;fillColor=none;" vertex="1" parent="X3VEshdv0sgIEu_UB0-r-37">
          <mxGeometry width="215" height="30" as="geometry"/>
        </mxCell>
        <mxCell id="X3VEshdv0sgIEu_UB0-r-39" value="" style="shape=image;imageAspect=0;aspect=fixed;verticalLabelPosition=bottom;verticalAlign=top;fontSize=14;align=center;image=https://avatars3.githubusercontent.com/u/8569188?s=200&amp;v=4;" vertex="1" parent="X3VEshdv0sgIEu_UB0-r-37">
          <mxGeometry x="187.02290076335876" width="26.908396946564885" height="26.908396946564885" as="geometry"/>
        </mxCell>
        <mxCell id="X3VEshdv0sgIEu_UB0-r-40" style="rounded=0;orthogonalLoop=1;jettySize=auto;html=1;entryX=1;entryY=0.5;entryDx=0;entryDy=0;startArrow=none;startFill=0;endArrow=none;endFill=0;fontSize=17;fontColor=#004C99;strokeColor=#666666;strokeWidth=2;" edge="1" parent="1" source="X3VEshdv0sgIEu_UB0-r-41" target="X3VEshdv0sgIEu_UB0-r-35">
          <mxGeometry relative="1" as="geometry"/>
        </mxCell>
        <mxCell id="X3VEshdv0sgIEu_UB0-r-41" value="&lt;font style=&quot;font-size: 18px&quot;&gt;Bias correction&lt;/font&gt;" style="rounded=1;whiteSpace=wrap;html=1;strokeColor=#DEAA3D;strokeWidth=2;" vertex="1" parent="1">
          <mxGeometry x="369.84126984127005" y="600" width="215" height="30" as="geometry"/>
        </mxCell>
        <mxCell id="X3VEshdv0sgIEu_UB0-r-42" style="edgeStyle=none;rounded=0;orthogonalLoop=1;jettySize=auto;html=1;exitX=0;exitY=0.5;exitDx=0;exitDy=0;entryX=1;entryY=0.5;entryDx=0;entryDy=0;startArrow=none;startFill=0;endArrow=none;endFill=0;fontSize=17;fontColor=#004C99;strokeColor=#666666;strokeWidth=2;" edge="1" parent="1" source="X3VEshdv0sgIEu_UB0-r-43" target="X3VEshdv0sgIEu_UB0-r-34">
          <mxGeometry relative="1" as="geometry"/>
        </mxCell>
        <mxCell id="X3VEshdv0sgIEu_UB0-r-43" value="&lt;font style=&quot;font-size: 18px&quot;&gt;Storm tracking&lt;/font&gt;" style="rounded=0;whiteSpace=wrap;html=1;strokeColor=#DEAA3D;strokeWidth=2;" vertex="1" parent="1">
          <mxGeometry x="369.84126984127005" y="539" width="215" height="30" as="geometry"/>
        </mxCell>
        <mxCell id="X3VEshdv0sgIEu_UB0-r-44" value="" style="group;rounded=1;verticalAlign=middle;strokeColor=#DEAA3D;strokeWidth=2;fillColor=#ffffff;" vertex="1" connectable="0" parent="1">
          <mxGeometry x="369.84126984127005" y="478" width="215" height="30" as="geometry"/>
        </mxCell>
        <mxCell id="X3VEshdv0sgIEu_UB0-r-45" value="&lt;font style=&quot;font-size: 18px&quot;&gt;Ensemble statistics&lt;/font&gt;" style="rounded=0;whiteSpace=wrap;html=1;strokeColor=none;fillColor=none;" vertex="1" parent="X3VEshdv0sgIEu_UB0-r-44">
          <mxGeometry width="214.48412698412682" height="30" as="geometry"/>
        </mxCell>
        <mxCell id="X3VEshdv0sgIEu_UB0-r-46" value="" style="shape=image;imageAspect=0;aspect=fixed;verticalLabelPosition=bottom;verticalAlign=top;fontSize=14;align=center;image=https://avatars3.githubusercontent.com/u/8569188?s=200&amp;v=4;" vertex="1" parent="X3VEshdv0sgIEu_UB0-r-44">
          <mxGeometry x="186.50793650793634" width="27.976190476190453" height="27.976190476190453" as="geometry"/>
        </mxCell>
        <mxCell id="X3VEshdv0sgIEu_UB0-r-47" value="" style="group;strokeWidth=1;" vertex="1" connectable="0" parent="1">
          <mxGeometry x="369.4236641221374" y="415" width="215" height="30" as="geometry"/>
        </mxCell>
        <mxCell id="X3VEshdv0sgIEu_UB0-r-48" value="&lt;font style=&quot;font-size: 18px&quot;&gt;Subsetting&lt;/font&gt;" style="rounded=1;whiteSpace=wrap;html=1;strokeColor=#DEAA3D;strokeWidth=2;" vertex="1" parent="X3VEshdv0sgIEu_UB0-r-47">
          <mxGeometry width="215.0763358778626" height="30" as="geometry"/>
        </mxCell>
        <mxCell id="X3VEshdv0sgIEu_UB0-r-49" value="" style="shape=image;imageAspect=0;aspect=fixed;verticalLabelPosition=bottom;verticalAlign=top;fontSize=14;align=center;image=https://avatars3.githubusercontent.com/u/8569188?s=200&amp;v=4;" vertex="1" parent="X3VEshdv0sgIEu_UB0-r-47">
          <mxGeometry x="187.0229007633588" width="28.053435114503817" height="28.053435114503817" as="geometry"/>
        </mxCell>
        <mxCell id="X3VEshdv0sgIEu_UB0-r-50" style="edgeStyle=none;rounded=0;orthogonalLoop=1;jettySize=auto;html=1;exitX=0;exitY=0.5;exitDx=0;exitDy=0;entryX=1;entryY=0.5;entryDx=0;entryDy=0;startArrow=none;startFill=0;endArrow=none;endFill=0;" edge="1" parent="1" source="X3VEshdv0sgIEu_UB0-r-45" target="X3VEshdv0sgIEu_UB0-r-33">
          <mxGeometry relative="1" as="geometry"/>
        </mxCell>
        <mxCell id="X3VEshdv0sgIEu_UB0-r-51" style="edgeStyle=none;rounded=0;orthogonalLoop=1;jettySize=auto;html=1;startArrow=none;startFill=0;endArrow=none;endFill=0;fontSize=17;fontColor=#004C99;strokeColor=#666666;strokeWidth=2;" edge="1" parent="1" source="X3VEshdv0sgIEu_UB0-r-48" target="X3VEshdv0sgIEu_UB0-r-32">
          <mxGeometry relative="1" as="geometry"/>
        </mxCell>
        <mxCell id="X3VEshdv0sgIEu_UB0-r-52" value="" style="endArrow=none;html=1;entryX=0.734;entryY=1.015;entryDx=0;entryDy=0;entryPerimeter=0;endFill=0;rounded=0;fontSize=17;fontColor=#004C99;strokeColor=#666666;strokeWidth=2;startFill=0;" edge="1" parent="1">
          <mxGeometry width="50" height="50" relative="1" as="geometry">
            <mxPoint x="340" y="614.4999999999998" as="sourcePoint"/>
            <mxPoint x="338.9499522304691" y="240.44999999999982" as="targetPoint"/>
          </mxGeometry>
        </mxCell>
        <mxCell id="X3VEshdv0sgIEu_UB0-r-53" value="&lt;font color=&quot;#004c99&quot; style=&quot;font-size: 21px;&quot;&gt;WPS&lt;/font&gt;" style="text;html=1;align=center;verticalAlign=middle;resizable=0;points=[];;labelBackgroundColor=#ffffff;fontColor=#FFFFFF;fontStyle=1;fontSize=21;" vertex="1" connectable="0" parent="X3VEshdv0sgIEu_UB0-r-52">
          <mxGeometry x="0.8454" y="-1" relative="1" as="geometry">
            <mxPoint as="offset"/>
          </mxGeometry>
        </mxCell>
        <mxCell id="X3VEshdv0sgIEu_UB0-r-54" style="edgeStyle=orthogonalEdgeStyle;rounded=0;orthogonalLoop=1;jettySize=auto;html=1;startArrow=none;startFill=0;endArrow=none;endFill=0;fontSize=21;fontColor=#FFFFFF;strokeColor=#D72B32;strokeWidth=2;entryX=0;entryY=0.25;entryDx=0;entryDy=0;" edge="1" parent="1" source="X3VEshdv0sgIEu_UB0-r-56" target="X3VEshdv0sgIEu_UB0-r-31">
          <mxGeometry relative="1" as="geometry">
            <Array as="points">
              <mxPoint x="70" y="680"/>
              <mxPoint x="70" y="312"/>
            </Array>
          </mxGeometry>
        </mxCell>
        <mxCell id="X3VEshdv0sgIEu_UB0-r-55" value="&lt;font color=&quot;#004c99&quot;&gt;&lt;b&gt;WCS&lt;/b&gt;&lt;/font&gt;" style="text;html=1;align=center;verticalAlign=middle;resizable=0;points=[];;labelBackgroundColor=#ffffff;fontSize=21;fontColor=#FFFFFF;" vertex="1" connectable="0" parent="X3VEshdv0sgIEu_UB0-r-54">
          <mxGeometry x="-0.8847" y="2" relative="1" as="geometry">
            <mxPoint x="9" y="7" as="offset"/>
          </mxGeometry>
        </mxCell>
        <mxCell id="X3VEshdv0sgIEu_UB0-r-56" value="&lt;span style=&quot;font-size: 18px&quot;&gt;ECCC Geomet&lt;/span&gt;" style="html=1;verticalLabelPosition=bottom;align=center;labelBackgroundColor=#ffffff;verticalAlign=top;strokeWidth=2;strokeColor=#666666;shadow=0;dashed=0;shape=mxgraph.ios7.icons.data;fontFamily=Helvetica;fontSize=12;fontColor=#000000;fillColor=#ffffff;" vertex="1" parent="1">
          <mxGeometry x="-305" y="675" width="50" height="60" as="geometry"/>
        </mxCell>
        <mxCell id="X3VEshdv0sgIEu_UB0-r-57" value="" style="group;fontSize=16;" vertex="1" connectable="0" parent="1">
          <mxGeometry x="-365" y="370" width="160" height="60" as="geometry"/>
        </mxCell>
        <mxCell id="X3VEshdv0sgIEu_UB0-r-58" value="&lt;font style=&quot;font-size: 18px&quot;&gt;Geospatial &lt;br&gt;data&lt;/font&gt;" style="rounded=1;whiteSpace=wrap;html=1;strokeWidth=2;strokeColor=#D72B32;labelBackgroundColor=none;" vertex="1" parent="X3VEshdv0sgIEu_UB0-r-57">
          <mxGeometry width="160" height="60" as="geometry"/>
        </mxCell>
        <mxCell id="X3VEshdv0sgIEu_UB0-r-59" value="" style="shape=image;imageAspect=0;aspect=fixed;verticalLabelPosition=bottom;verticalAlign=top;fillColor=none;fontSize=14;align=center;image=data:image/jpeg,/9j/4AAQSkZJRgABAQAAAQABAAD/2wCEAAkGBwgHBgkIBwgKCgkLDRYPDQwMDRsUFRAWIB0iIiAdHx8kKDQsJCYxJx8fLT0tMTU3Ojo6Iys/RD84QzQ5OjcBCgoKDQwNGg8PGjclHyU3Nzc3Nzc3Nzc3Nzc3Nzc3Nzc3Nzc3Nzc3Nzc3Nzc3Nzc3Nzc3Nzc3Nzc3Nzc3Nzc3N//AABEIAIAAgAMBEQACEQEDEQH/xAAbAAABBQEBAAAAAAAAAAAAAAAAAwQFBgcCAf/EADsQAAEEAQEGBAIIBQMFAAAAAAEAAgMEEQUGEiExQWETIlFxMqEUI0KBkbHB0TNSYuHwJFPxBxVDcqL/xAAbAQABBQEBAAAAAAAAAAAAAAAAAgMEBQYBB//EADARAAICAgEEAAQEBwADAAAAAAECAAMEERIFITFBEyJRYXGBkbEGFDKhwdHhFULw/9oADAMBAAIRAxEAPwDcUQgiEEQgiEEQje9cgo1n2LMgZEzmSlIhduK+Yiyxa15OdCUHVtsbtuQsoD6LBn4ub3D9FaVYKgfP3MoMjqljHSdh/eT8LpbMbZW78jXDIdnIKqXIViDLVNuAwioE0XEB7e4QGBndMsdVtQkZgS+dvr1XdRa2keZJVbMNqIS15GyMJIy09RzQylTox9HVxtT2iy5FQRCCIQRCCIQRCCIQRCCIRKxOyCF0shw1vH37IiWbiNzNNpLuo6rY3568sVVhPhx4yB3PdW+L8FBpWBMzWbZfcdspA9SHaAApsrIq2aVjd1sj2t9A4gJJVSdkRXNgNAzRtIJbpVXffv4iBLyc5WYyNG5tD3Nfi9sddnfaQ+0Gs1omOioua+weDnM+Fv8AdT8PFsb5rPErc/OrQcKztv7CQezOo3dNvYqRPngkP1sI/PsVYZVdbr8x1IOBk2Vv8g2PYmmwytliD2ngfkqWahTsbiiJ2CIQRCCIQRCCIQRCJzzMgjdJI7DQicJAGzKxeuvuy9QwHyM/VNFvchuxcxSFjK0ZllIG6MknkAo7MbDxWOKBWOTSiW5GS25pIm7sbnktHoMrW1Ky1qredTJWsrWMyjtuJJyNxQSSbm54j9z+XeOPwXOK73qHJta32i1Csbl2Gs126ZHYz6DqkXWCtC59Ryir41i1j3NAi02CvWbDVYGBv/1791nGyGdtuZrExkrTig1CrZfWkwQcfaanfM4rFDJqKRsrA9hyCkyUCCO07ROwRCCIQRCCIRKxPHXidJK7daOq4TqcJAGzKtqF+S/L1DAfIz90yzbkN3NhndeLcGXYLvyUV7N+I4iaHeVraPUJJ7T6rSRDEcEfzFaHpmKqVCw+TKLqWSz2GseBIdWkrJ6icj/TNMn1IvFd8TSznvux+ijZGUmPrmD3knGxHyd8CO31nLGWtP1JrQw/SYXghreOT+xSi1d9JO/lIiAtuPeBr5gZo0TiWNLm7pIBLT07LLnsdCbJSSATOLEAlG83g8fNOJYR2iHTl39xGrZfWkwc4z5mqT2MZVihk1FI2Vgew5aUmSgQRsTtE7BEIIhErM8deF0srg1jeZXCQPM4zBRsypajflvzZ4iMfAz9+6js+5Cdy5nVeLc8zvi/JRLLOXYeI4ice8cNKRHZC6toRszPsVXgSO4uY7kT7q6wuqCpBXYOw9ypy+nG1i9Z7n1K7YrzVZTFOwseOhV7Valq8kOxKW2p6m4uNGJhORqS2g6dLdlL2WPAbGeJY7D/ALlAzcpaV0V3v9JPwsVrm2G1r6eZb6dKvVJdG0ulPxSyHee77yqGzIezsT2+g7CaGnGrqOwO/wBT3P6x4yRrs7jmuwcHdOcJGiPMfDA+Iq0oiolYgEo3m8Hj5p2t9HvG7K+URq2X1pMHO79pqkeRGVYoZNRSNkYHMOQVySgdjc7ROxKzYjrROlmcGsbzK4TobM4SANmU/UtRl1CfjlsbT5Gfqe6iu/Lv6kF7C5nkEYZxPxH5KHZZy7COImo4acJG45OwV2djbUNShoR5lO88/CwcypmLiWZLaXx9ZGyMqvHG28/SVTULsl+x40oA6NaOTQtTjYyY6cFmcyMhr35NGjpGM+JwCk6kckCWXZWrA+MX/Ec6QOLQ0HAb7qi6rlOrfA12l30rHRl+PvvJHaDVo6NGVokxYkaWxtaeOT19lE6fjvfaDr5R5kzqGUlFJG/mPiUyhq1uhOJa8mOPmb0d7rTXY1dy8XH/ACZajLtofkh/7NG0y+y/Sisx8A8cR6HqFk76mpsNbeps8e8X1Cxfcetem9x+cWIRKMt4PHzTyWa8xDpvuIjUsvrPI6faapPmMqxQyaikbIwPYcgpMlA77iUDbLW3u1htWJ2YavxtB+NxHH8Bw/FWFOItlB5e5RZ2YRfxXwsQp6jSLcum3Hno8clS5HT8sHQXY+0fpy6CP6u8koZ4pxvRPa8erTlV9lVlR041JiWI42p3FgUmLnYKVudlQ2gkMepymU88bo7YWv6Xo4q8fz/GZnqJIyG5SHfYc74fKFZhZWlyfEf6To1jUfPnw4c/xHdfZQMzqVWL8vlvp/uTMTp9mT83hfrLJU2ehrNPh27bS7mWP3cqjt6s9p7ov6bl3V0tKx2dv11G93ZUSbz69p5kPSbjn71Ko61x7Og19pGv6MG2yN3+8q9iCStO+CZu7Iw4c09FoK7FtQOp7GZ62tqnKMO4l02HkJ0yZpPwzHH3gLPdZGrwft/maXobboYff/Enrdr6JVkseE+URjJYzmVXUp8Rwm9blrdb8KsvrevpIzT9q9PtSCOTfruJwDJ8J+8Kfb0u+sbHf8JAo6xj2txPy/jJezCJWeIz4gM5HUKJW/E6MsLFDDYnuk2i2bwnHyv5e6kmN0vo6mYWZnWLU07+cj3PP3nKv1XioEy7sXcsfcTSoiSOhSOZqDA3OHghw+5VnV0VsUk+vEm9PYreAPcm9Uv/AEKFpY3ekfwb6DuqHp2F/NWHf9I8y1y8n4C9vJkLp2szDU2Nmmc8SHddk8AemArzPwKxik1ror3/ANyqxc1/5gBzvfaKbWxsLK8p/i5LT3HNRP4esbk6evP5x7rKLpW9yI0imb15kPJg8zz6AK7z8r+WoL+/UqsPH+PcE9e5fomsiY2OMBrGjDQOgWHLliWbyZsFAUcV8CKtcuxUUaUoTsjNW0KvqcomdI+OXGCRxz7hWWH1KzGXgBsSvzOm15LcydGIUqUmzgksmcS1XYErd3Dm+jh+Kk25K9RIr46b1/qR6cZunbs5bX3/ALju3tJp0dN74phLI5pDWNBznHXhwTdPTchrAGXQ+seu6rjColW2fpKIOC1UyEuOx9u86rJGx0U0cZw2J7yHt9uHJUXU66Q4J2CffqaTo915rIBBA9E95Ha1r+oUb4jEIqmOUOc3IcSM558sKRjYlTpyB5RrIz7kt4leOvzkPahdWtSwPB3o3uYc9jhTVbkoMhupRip9RNdiZYdFpCCMTv8A4jxwB+yFlOrZ/wAZzSn9K/3Mu8HG+GvxG8mO7kUNuPwpW7zeh6j2VXRl2478qjqTLqUuXi4ldu6FNDmSm4yNHHd+0P3Wmw+uVW6S8cT9fX/JR5HTHr+ao7H95FzzzTv3rD3veOHmPLsrummqpdVgAfaVttj2H5zsyd2Q3fFsHPm3QPuVF/EBPBB62Za9G1yf6y0grMiX86aUqdijSlAzs7a5KBnZW9r9RGG0Izx4Okx8h+v4LRdGxfN7D7D/ADKDrOV2+Av4n/Eq4WgmdnoRORSN5Y7eaS0+oOCuMAexi1YqdicuZJfuwQlznyTStZknJ4nCQeNaEjwJJqDW2AE7Jlq270t1XUfp0bfqLPxEcmv/AL/uq/Ct5JwPkS56nRws+IPB/eVuEB00bTyLgD+Kk2sUrZh6Bleg2wH3lqkkx5G/8Lzlmmn8dpy0rm4RRpSgZ2Qe0lOPwhbYA1+9h39S03QMxy5x27jWx9pTdVx14/FHn95DU7c1KYTQOw7kQeRHdaLJxq8lOFg7SnovehuSSdp7TeYNtQgD+Zh5fcqLI6Dobpb8jLenrHfVq/pLHDKyaNskTg5jhkEdVn3Rq2KONES6R1dQynYMVBXIuE8zYK8kzuTGFxHsE7UhsdUHs6ibLBWhc+hM8sTPsTvmlOXvOSVvq61rQIvgTD22NY5dvJkno+h2NRAkcfBgz8ZHF3soOZ1KvH+Ud2+n0/GTcPptmT8x7L9f9Sz1tndMibh0Bld/M95/TCo36rkuex1+Evq+k4qjRXf4mRG0OiQVIjNR3gGjMkZOcD1BVl0/qD2Hjb+Rlb1DpiVjnT+Yh/090l1/VjqUrP8AT1fgJHxP6Y9uf4KXn3cU4DyZ3pGLys+IfA/eaRepwXqslazGHxPGCFToxQ8l8zSWVrYpRh2MyvafR7GgWOOXwvP1MoHyPdXePat47zL5mM+K329GL6ddFqBr3cH8ne6w3UcE4dxQdx6lri5HxqwT5j0FQQZKnNi1DVj35nho6DqfZSsbGuyX4VDf7Ru25KV5OdStapqcl52ANyJp8rep7lbbpvTUw13vbH3/AImczM1sg68KIxCtJBnqJyWXZKd5E8BOWNw4D0WZ6/UoKWDz4l90exiGT15lkBWd3LyN9U82mWgP9px+SmYLccms/cSPmDeO/wCBlV0GgL94Nk4xMG8/v6Ba3qWUcana+T2EzXT8UZF2m8DuZe48NaGtGGjgAOixpYk7M14AHYTmeyIxus4vPyT1acu58RD2cfHmcafRk1CQggiP7bj/AJzU1ftGUrNh7+JZ6FKvp9WOtUiEcMYw1oTzuztybzJlda1KEQdhHCTFxtqFGvqFSSrbjEkUgwQencehSkdkbkvmN21JahRxsGZzf0GbQZPD3jJC5xMcuOfY91E6labreZHbUqVxTjDj5EYXNWbXZugB03p0HumsHorZLc2Ok/f8I3kZ4qGh3aQU88tiQvmeXOPyWxox6sdOFQ0JRW2va3JzuJp+NTockTk9ROS07LxNZTfLjzPfjPYLI9etY5C1+gP3mj6RWBSX9kycaVRiW8b6tOINNsOJ5xlo9zwU7p9ZtyUUfXf6SLm2BMdyfpr9ZU9M1GXTpXSQta4OGHNcOa2OZh15aBXOtfSZjEy3xW2vuSUu1Vnd+rgiacczkquXoVIPzMTJ7dauP9KgR/spLqGu3HtkiaKrP4k4BGD6D1KTl4dNKjge/wBJLwLr8ljyHb6zRa8EdeJscTd1oUOXygAaEVROwRCCIRC5VhuV3wWGB8bhxH6pLKGGjEsoYaMyDanQLOiXT4pMlaVxMU2OfY91oMO5HrCr216mSzsR6LNnuD7kKFMMr56ETk9ROT1EJZNmLLfCkrF3mDt5o7df87rKfxBjkOtw8HsZfdIuBU1Hz5k80rPbl1K1tFqH0mYV4jmOM8SDzcth0XBNNfxXHzN+3/Zm+qZfxW+Gp7D95DE4CvJUCSmzegWdftljCY6sZ+umxy7Duo2TkrSv3llg4LZDaHj2ZrmnUa+nVI6tSMRwsGAB17nuqF3Z25N5muqqSpAiDsI5SI5BEIIhBEIIhG2oUa+o1JKtuMPieMEH8x3SkdkbkvmN21JahRh2MyHafZ6xoNvddmSq8/VTY59j3V9j5K3L95ks3CfGb6j0f/vchgpMgzpdnJ6ETkUglfBIJInFr28iE3bUlyFHGwYuuxq2DKe8kJtbuTRGPLWZHEsGCVWU9Exan56J19ZMs6nkOvHxI0nCt5X+ZLbN6BZ1+3uNzHVjI8WbHLsO6jZOStK/eWGDgtkt28DyZren0a+nVI6tSIRwsGAB+Z7qhd2duTeZrqqkqQIg0I6SI5BEIIhBEIIhBEIIhG2oUa+oVJKtqMSRPGCD+Y7pSOyNyXzG7altQo42DMh2m2esaDb3XZkqvP1M2OfY91fY2Qty/eZLNwmxm15B8GQ4UqQJ6icikbHyHEbXOP8ASMpD2JWNudfjFKjMdKNxyzT7Tv8Ax7v/ALEKG/U8Vf8A23JC4Vx9SV0XZK5qtpoc9kddpHiyA5IHoOHNM/8AlamB4AyZj9KsdvmPaalp1Gvp9SOrUiEcTBgAde57qtd2duTeZp6qkqQIg7COkiOQRCCIQRCCIQRCCIQRCCIRtfo19QqvrW4xJE8cWn8/dKR2RuS+Y3bUlqlHGxM71TYC1Xmc+jL49fo0D6xv6FT36oyp2TZ/GUNnRiG2p2P7yN/7S2o7E9d4cP8AdBCqb+p5T9ieP4QXBrr8j9Y8rxTS4ZXie/8Apjbn8lXlS7bPcyWgOtLJ3TNmbU5D7n+nj9PtH9lIShj57SQmOzf1dpcKtaKrAyGBgYxvIBTFAA0JNVQo0IsuxUEQgiEEQgiE/9k=;" vertex="1" parent="X3VEshdv0sgIEu_UB0-r-57">
          <mxGeometry x="128" y="28" width="30" height="30" as="geometry"/>
        </mxCell>
        <mxCell id="X3VEshdv0sgIEu_UB0-r-60" value="" style="group;fontSize=16;rounded=0;" vertex="1" connectable="0" parent="1">
          <mxGeometry x="-120" y="370" width="160" height="60" as="geometry"/>
        </mxCell>
        <mxCell id="X3VEshdv0sgIEu_UB0-r-61" value="&lt;font style=&quot;font-size: 18px&quot;&gt;Access control &lt;br&gt;list&lt;/font&gt;" style="rounded=1;whiteSpace=wrap;html=1;strokeWidth=2;strokeColor=#DEAA3D;" vertex="1" parent="X3VEshdv0sgIEu_UB0-r-60">
          <mxGeometry width="160" height="60" as="geometry"/>
        </mxCell>
        <mxCell id="X3VEshdv0sgIEu_UB0-r-62" style="edgeStyle=orthogonalEdgeStyle;rounded=0;orthogonalLoop=1;jettySize=auto;html=1;startArrow=none;startFill=0;endArrow=none;endFill=0;strokeColor=#D72B32;strokeWidth=2;fontSize=21;fontColor=#FFFFFF;entryX=0;entryY=0.75;entryDx=0;entryDy=0;" edge="1" parent="1" source="X3VEshdv0sgIEu_UB0-r-64" target="X3VEshdv0sgIEu_UB0-r-31">
          <mxGeometry relative="1" as="geometry">
            <Array as="points">
              <mxPoint x="80" y="720"/>
              <mxPoint x="80" y="327"/>
            </Array>
          </mxGeometry>
        </mxCell>
        <mxCell id="X3VEshdv0sgIEu_UB0-r-63" value="&lt;font color=&quot;#004c99&quot;&gt;DAP&lt;/font&gt;" style="text;html=1;align=center;verticalAlign=middle;resizable=0;points=[];;labelBackgroundColor=#ffffff;fontSize=21;fontColor=#FFFFFF;fontStyle=1" vertex="1" connectable="0" parent="X3VEshdv0sgIEu_UB0-r-62">
          <mxGeometry x="-0.7268" relative="1" as="geometry">
            <mxPoint x="-22" y="-5" as="offset"/>
          </mxGeometry>
        </mxCell>
        <mxCell id="X3VEshdv0sgIEu_UB0-r-64" value="&lt;span style=&quot;font-size: 18px&quot;&gt;CaSPAr &lt;br&gt;&lt;/span&gt;" style="html=1;verticalLabelPosition=bottom;align=center;labelBackgroundColor=#ffffff;verticalAlign=top;strokeWidth=2;strokeColor=#D72B32;shadow=0;dashed=0;shape=mxgraph.ios7.icons.data;fontFamily=Helvetica;fontSize=12;fontColor=#000000;fillColor=#ffffff;" vertex="1" parent="1">
          <mxGeometry x="-130" y="690" width="50" height="60" as="geometry"/>
        </mxCell>
        <mxCell id="X3VEshdv0sgIEu_UB0-r-65" style="edgeStyle=orthogonalEdgeStyle;rounded=0;orthogonalLoop=1;jettySize=auto;html=1;startArrow=none;startFill=0;endArrow=none;endFill=0;strokeColor=#666666;strokeWidth=2;fontSize=21;fontColor=#FFFFFF;" edge="1" parent="1" source="X3VEshdv0sgIEu_UB0-r-28" target="X3VEshdv0sgIEu_UB0-r-15">
          <mxGeometry relative="1" as="geometry"/>
        </mxCell>
        <mxCell id="X3VEshdv0sgIEu_UB0-r-66" value="" style="verticalLabelPosition=bottom;verticalAlign=middle;html=1;shape=mxgraph.basic.rect;fillColor2=none;strokeWidth=2;size=20;indent=5;fillColor=#ffffff;fontSize=12;fontColor=#000000;strokeColor=#D72B32;rounded=0;labelBackgroundColor=none;" vertex="1" parent="1">
          <mxGeometry x="286" y="725" width="36" height="10" as="geometry"/>
        </mxCell>
        <mxCell id="X3VEshdv0sgIEu_UB0-r-67" value="&lt;font color=&quot;#000000&quot;&gt;&lt;span style=&quot;font-size: 13px&quot;&gt;Canarie Call 3&lt;br&gt;&lt;/span&gt;&lt;/font&gt;" style="text;html=1;resizable=0;autosize=1;align=left;verticalAlign=middle;points=[];fillColor=none;strokeColor=none;rounded=0;fontSize=21;fontColor=#FFFFFF;" vertex="1" parent="1">
          <mxGeometry x="325" y="710" width="100" height="30" as="geometry"/>
        </mxCell>
        <mxCell id="X3VEshdv0sgIEu_UB0-r-68" value="" style="verticalLabelPosition=bottom;verticalAlign=middle;html=1;shape=mxgraph.basic.rect;fillColor2=none;strokeWidth=2;size=20;indent=5;fillColor=#ffffff;fontSize=12;fontColor=#000000;rounded=0;strokeColor=#666666;" vertex="1" parent="1">
          <mxGeometry x="453.5" y="700" width="36" height="10" as="geometry"/>
        </mxCell>
        <mxCell id="X3VEshdv0sgIEu_UB0-r-69" value="&lt;font color=&quot;#000000&quot; style=&quot;font-size: 13px&quot;&gt;Existing/upgraded&amp;nbsp;&lt;/font&gt;" style="text;html=1;resizable=0;autosize=1;align=left;verticalAlign=middle;points=[];fillColor=none;strokeColor=none;rounded=0;fontSize=21;fontColor=#FFFFFF;" vertex="1" parent="1">
          <mxGeometry x="325" y="685" width="120" height="30" as="geometry"/>
        </mxCell>
        <mxCell id="X3VEshdv0sgIEu_UB0-r-70" value="" style="verticalLabelPosition=bottom;verticalAlign=top;html=1;shape=mxgraph.basic.rect;fillColor2=none;strokeWidth=2;size=20;indent=5;fillColor=none;fontSize=21;fontColor=#FFFFFF;strokeColor=#DEAA3D;" vertex="1" parent="1">
          <mxGeometry x="454" y="725" width="36" height="10" as="geometry"/>
        </mxCell>
        <mxCell id="X3VEshdv0sgIEu_UB0-r-71" value="&lt;font color=&quot;#000000&quot;&gt;&lt;span style=&quot;font-size: 13px&quot;&gt;&lt;br&gt;&lt;/span&gt;&lt;/font&gt;" style="text;html=1;resizable=0;autosize=1;align=left;verticalAlign=middle;points=[];fillColor=none;strokeColor=none;rounded=0;fontSize=21;fontColor=#FFFFFF;" vertex="1" parent="1">
          <mxGeometry x="400" y="735" width="20" height="30" as="geometry"/>
        </mxCell>
        <mxCell id="X3VEshdv0sgIEu_UB0-r-72" value="&lt;font color=&quot;#000000&quot; style=&quot;font-size: 13px&quot;&gt;New&lt;/font&gt;" style="text;html=1;resizable=0;autosize=1;align=left;verticalAlign=middle;points=[];fillColor=none;strokeColor=none;rounded=0;fontSize=21;fontColor=#FFFFFF;" vertex="1" parent="1">
          <mxGeometry x="492.5" y="685" width="40" height="30" as="geometry"/>
        </mxCell>
        <mxCell id="X3VEshdv0sgIEu_UB0-r-73" value="&lt;font color=&quot;#000000&quot;&gt;&lt;span style=&quot;font-size: 13px&quot;&gt;External funding&lt;br&gt;&lt;/span&gt;&lt;/font&gt;" style="text;html=1;resizable=0;autosize=1;align=left;verticalAlign=middle;points=[];fillColor=none;strokeColor=none;rounded=0;fontSize=21;fontColor=#FFFFFF;" vertex="1" parent="1">
          <mxGeometry x="492.5" y="710" width="110" height="30" as="geometry"/>
        </mxCell>
        <mxCell id="X3VEshdv0sgIEu_UB0-r-74" value="" style="strokeWidth=2;html=1;shape=mxgraph.flowchart.terminator;whiteSpace=wrap;fontFamily=Helvetica;fontSize=12;fontColor=#000000;align=center;strokeColor=#666666;fillColor=#ffffff;" vertex="1" parent="1">
          <mxGeometry x="284" y="700" width="36" height="10" as="geometry"/>
        </mxCell>
        <mxCell id="X3VEshdv0sgIEu_UB0-r-75" style="edgeStyle=orthogonalEdgeStyle;rounded=0;orthogonalLoop=1;jettySize=auto;html=1;startArrow=none;startFill=0;endArrow=none;endFill=0;strokeColor=#666666;strokeWidth=2;fontSize=17;fontColor=#004C99;" edge="1" parent="1" source="X3VEshdv0sgIEu_UB0-r-18">
          <mxGeometry relative="1" as="geometry">
            <mxPoint x="-159.57142857142844" y="240.28571428571445" as="targetPoint"/>
            <Array as="points">
              <mxPoint x="-160" y="490"/>
              <mxPoint x="-160" y="240"/>
            </Array>
          </mxGeometry>
        </mxCell>
        <mxCell id="X3VEshdv0sgIEu_UB0-r-76" style="edgeStyle=orthogonalEdgeStyle;rounded=0;orthogonalLoop=1;jettySize=auto;html=1;startFill=0;endArrow=none;endFill=0;strokeColor=#666666;strokeWidth=2;fontSize=17;fontColor=#004C99;" edge="1" parent="1" source="X3VEshdv0sgIEu_UB0-r-58">
          <mxGeometry relative="1" as="geometry">
            <mxPoint x="-160" y="240" as="targetPoint"/>
          </mxGeometry>
        </mxCell>
        <mxCell id="X3VEshdv0sgIEu_UB0-r-77" style="edgeStyle=orthogonalEdgeStyle;rounded=0;orthogonalLoop=1;jettySize=auto;html=1;startFill=0;endArrow=none;endFill=0;strokeColor=#666666;strokeWidth=2;fontSize=17;fontColor=#004C99;" edge="1" parent="1" source="X3VEshdv0sgIEu_UB0-r-61">
          <mxGeometry relative="1" as="geometry">
            <mxPoint x="-160" y="240" as="targetPoint"/>
          </mxGeometry>
        </mxCell>
        <mxCell id="X3VEshdv0sgIEu_UB0-r-78" style="edgeStyle=orthogonalEdgeStyle;rounded=0;orthogonalLoop=1;jettySize=auto;html=1;startFill=0;endArrow=none;endFill=0;strokeColor=#666666;strokeWidth=2;fontSize=17;fontColor=#004C99;" edge="1" parent="1" source="X3VEshdv0sgIEu_UB0-r-22">
          <mxGeometry relative="1" as="geometry">
            <mxPoint x="-160" y="240" as="targetPoint"/>
          </mxGeometry>
        </mxCell>
        <mxCell id="X3VEshdv0sgIEu_UB0-r-79" style="edgeStyle=orthogonalEdgeStyle;rounded=0;orthogonalLoop=1;jettySize=auto;html=1;startFill=0;endArrow=none;endFill=0;strokeColor=#666666;strokeWidth=2;fontSize=17;fontColor=#004C99;" edge="1" parent="1" source="X3VEshdv0sgIEu_UB0-r-28">
          <mxGeometry relative="1" as="geometry">
            <mxPoint x="-160" y="240" as="targetPoint"/>
          </mxGeometry>
        </mxCell>
        <mxCell id="X3VEshdv0sgIEu_UB0-r-80" value="&lt;span style=&quot;font-style: italic; font-weight: 700; white-space: normal; font-size: 12px;&quot;&gt;&amp;nbsp;NetCDF&lt;/span&gt;&lt;span style=&quot;font-size: 12px; font-style: italic; font-weight: 700; white-space: normal;&quot;&gt;&lt;br style=&quot;font-size: 12px;&quot;&gt;&lt;/span&gt;&lt;span style=&quot;font-style: italic; font-weight: 700; white-space: normal; font-size: 12px;&quot;&gt;DAP&lt;/span&gt;&lt;span style=&quot;font-size: 12px; font-style: italic; font-weight: 700; white-space: normal;&quot;&gt;&lt;br style=&quot;font-size: 12px;&quot;&gt;WFS&lt;br style=&quot;font-size: 12px;&quot;&gt;WPS&lt;br style=&quot;font-size: 12px;&quot;&gt;WCS&lt;br style=&quot;font-size: 12px;&quot;&gt;WMS&lt;br style=&quot;font-size: 12px;&quot;&gt;CWL&lt;/span&gt;" style="text;html=1;align=center;verticalAlign=middle;resizable=0;points=[];;labelBackgroundColor=#ffffff;fontSize=12;fontColor=#004C99;spacingRight=0;horizontal=1;" vertex="1" connectable="0" parent="X3VEshdv0sgIEu_UB0-r-79">
          <mxGeometry x="0.8861" y="2" relative="1" as="geometry">
            <mxPoint x="2" y="38" as="offset"/>
          </mxGeometry>
        </mxCell>
        <mxCell id="X3VEshdv0sgIEu_UB0-r-81" style="edgeStyle=orthogonalEdgeStyle;rounded=0;orthogonalLoop=1;jettySize=auto;html=1;startFill=0;endArrow=none;endFill=0;strokeColor=#666666;strokeWidth=2;fontSize=17;fontColor=#004C99;" edge="1" parent="1" source="X3VEshdv0sgIEu_UB0-r-82">
          <mxGeometry relative="1" as="geometry">
            <mxPoint x="340" y="370" as="targetPoint"/>
          </mxGeometry>
        </mxCell>
        <mxCell id="X3VEshdv0sgIEu_UB0-r-82" value="&lt;font style=&quot;font-size: 18px&quot;&gt;Frequency analysis&lt;/font&gt;" style="rounded=1;whiteSpace=wrap;html=1;strokeColor=#D72B32;strokeWidth=2;labelBackgroundColor=none;fillColor=#ffffff;" vertex="1" parent="1">
          <mxGeometry x="92" y="356" width="215" height="28" as="geometry"/>
        </mxCell>
        <mxCell id="X3VEshdv0sgIEu_UB0-r-83" value="" style="edgeStyle=orthogonalEdgeStyle;rounded=0;orthogonalLoop=1;jettySize=auto;html=1;startFill=0;endArrow=none;endFill=0;strokeColor=#666666;strokeWidth=2;fontSize=17;fontColor=#004C99;" edge="1" parent="1" source="X3VEshdv0sgIEu_UB0-r-45" target="X3VEshdv0sgIEu_UB0-r-33">
          <mxGeometry relative="1" as="geometry"/>
        </mxCell>
        <mxCell id="X3VEshdv0sgIEu_UB0-r-84" value="&lt;font style=&quot;font-size: 20px&quot;&gt;Analytical services&lt;/font&gt;" style="text;html=1;strokeColor=none;fillColor=none;align=center;verticalAlign=middle;whiteSpace=wrap;rounded=0;fontStyle=1;fontSize=14;fontColor=#1699D3;" vertex="1" parent="1">
          <mxGeometry x="389.5" y="310" width="200" height="20" as="geometry"/>
        </mxCell>
        <mxCell id="X3VEshdv0sgIEu_UB0-r-85" value="" style="aspect=fixed;perimeter=ellipsePerimeter;html=1;align=center;shadow=0;dashed=0;fontColor=#4277BB;labelBackgroundColor=#ffffff;fontSize=12;spacingTop=3;image;image=img/lib/ibm/security/security_services.svg;rounded=1;strokeColor=#DEAA3D;strokeWidth=2;fillColor=#66B2FF;" vertex="1" parent="1">
          <mxGeometry x="21" y="353" width="30" height="30" as="geometry"/>
        </mxCell>
        <mxCell id="X3VEshdv0sgIEu_UB0-r-86" style="edgeStyle=orthogonalEdgeStyle;rounded=0;orthogonalLoop=1;jettySize=auto;html=1;startFill=0;endArrow=none;endFill=0;strokeColor=#666666;strokeWidth=2;fontSize=17;fontColor=#004C99;" edge="1" parent="1" source="X3VEshdv0sgIEu_UB0-r-38">
          <mxGeometry relative="1" as="geometry">
            <mxPoint x="340" y="370" as="targetPoint"/>
          </mxGeometry>
        </mxCell>
        <mxCell id="X3VEshdv0sgIEu_UB0-r-87" style="edgeStyle=orthogonalEdgeStyle;rounded=0;orthogonalLoop=1;jettySize=auto;html=1;labelBackgroundColor=none;startFill=0;endArrow=none;endFill=0;strokeColor=#666666;strokeWidth=2;fontSize=13;fontColor=#004C99;entryX=0.495;entryY=1;entryDx=0;entryDy=0;entryPerimeter=0;" edge="1" parent="1" source="X3VEshdv0sgIEu_UB0-r-88" target="X3VEshdv0sgIEu_UB0-r-2">
          <mxGeometry relative="1" as="geometry">
            <mxPoint x="105" y="162" as="targetPoint"/>
            <Array as="points">
              <mxPoint x="500" y="180"/>
              <mxPoint x="120" y="180"/>
              <mxPoint x="120" y="160"/>
            </Array>
          </mxGeometry>
        </mxCell>
        <mxCell id="X3VEshdv0sgIEu_UB0-r-88" value="" style="whiteSpace=wrap;html=1;fontSize=16;fillColor=#f5f5f5;strokeColor=#666666;fontColor=#333333;rounded=1;strokeWidth=2;" vertex="1" parent="1">
          <mxGeometry x="400" y="59" width="200" height="100" as="geometry"/>
        </mxCell>
        <mxCell id="X3VEshdv0sgIEu_UB0-r-89" value="&lt;span style=&quot;font-size: 20px&quot;&gt;Testing and&amp;nbsp;&lt;br&gt;monitoring&lt;br&gt;&lt;/span&gt;" style="text;html=1;strokeColor=none;fillColor=none;align=center;verticalAlign=middle;whiteSpace=wrap;rounded=0;fontStyle=1;fontSize=14;fontColor=#1699D3;" vertex="1" parent="1">
          <mxGeometry x="392.5" y="80" width="200" height="20" as="geometry"/>
        </mxCell>
        <mxCell id="X3VEshdv0sgIEu_UB0-r-90" value="" style="aspect=fixed;perimeter=ellipsePerimeter;html=1;align=center;shadow=0;dashed=0;fontColor=#4277BB;labelBackgroundColor=#ffffff;fontSize=12;spacingTop=3;image;image=img/lib/ibm/devops/build_test.svg;rounded=1;strokeColor=#666666;strokeWidth=2;fillColor=#F5F5F5;" vertex="1" parent="1">
          <mxGeometry x="560" y="123" width="30" height="30" as="geometry"/>
        </mxCell>
        <mxCell id="X3VEshdv0sgIEu_UB0-r-91" value="" style="shape=image;verticalLabelPosition=bottom;labelBackgroundColor=#ffffff;verticalAlign=top;aspect=fixed;imageAspect=0;image=data:image/png,iVBORw0KGgoAAAANSUhEUgAAARgAAAEYCAYAAACHjumMAAAABmJLR0QA/wD/AP+gvaeTAAAACXBIWXMAAAsTAAALEwEAmpwYAAAAB3RJTUUH4wsaFg87OkhvTwAAIABJREFUeNrtnXmYHUW5/z/VZyYzSSb7vicQQhaWAIGwJOybAREUxKu4XNGf3gte8V7FHRXFqxdxV67ixnVBRUVEENkJSwATCEtCErKQfd9mMklm5pxTvz+qx0zCnNNV1dXbTL/Pc55ZTp/uPt1Vn/6+b731lpBSkltuueUWhXn5Jcgtt9xywOSWW245YHLLLbfccsDklltuOWByyy23HDC55ZZbbjlgcssttxwwueWWWw6Y3HLLLbfKVpNfgvhNCCESPoVaYBQwFBjh/+wP9AP6An2Aev9V53+m4P9s6/BqBpr81y5gG7AD2AJsAjYDe9N07WWeuh5vW8+vd5cESw9gNHAYcAQw0gfJcB8mA2JUr9t84KwHNgLr/N/XAq/7kMpBkwMmt5RCxQPGAScBxwLTgMkZUqevAfOAF4CFwJocNjlgcksOLIOBo4GjfJic7Ls0XcV2AIuBRf7rcWBPDpocMLlFA5ZxwBnA8b5CGdvNLmkZWAE8D8z3X5GqnBw0OWC6OlSGApcAc4BjAJFf5YPsdeBe4A85bHLA5HAJtknAm4AZwCDgyPzK6vV/4EVgO/AM8IgPnxwyOWC6PVQEcBbwKeDw/Ko6s5eAO4C7UEPpOWxywHQbsNT4KuUi4DxgSH5VI7MdwIM+bF7OIZMDpiuDpQC8BfgoKj8lt3jtReB/feA4bfA5bHLAJAmXgcDVwOWo4eXckrX1vut0ByrTOIdMDpjMgaUWOB24AjibAyn2uaXHisBc4Pe+qslBkwMmE4plJvAVVIp+btmwp4GvoZL6csjkgEkdXArAhcB7UAHczFq9B317QL866FVA1hegdw30KIAnDiTjSKAsobUE+0qwtwj7SojdrdDYqv6XMSv7oLkdeBQHcZocNDlgwoLFA/4V+Ezav58n4LA+MKkfcnI/5MS+yIn9YEIDckg9MsrZUk1tiJVNsGw3ov21dDdi+W5oS2fT2wP8EPgF0JKDJgdM3HCpRcVXPkgK0/aH94Qp/ZGT+iKnD0IeNRB5eF/oXUOqbnRrGbF6D7y0A/HSDsTSXYjFuxGrm1JzihuAn6LiNKFKTnRnyHRbwAghbMoVTPL99WPS8j2G1MM5o5Czh1GeNRw5rgGZ5XkF21sQT2xCPLYB8dgmvFXJA2cB8GlgpQM1U84Bk4OlMxsLfAS4lITnBfXtAScNQZ4yFDlzCPK04UgPuuRNlBJe2IE3bzPima2IeZsRW/cncyqoeU/fBLbmoMkBU8kVMoVDHfBJ4CoSKi9aK2DWcOTsEcizRii3p6sCRaeXL92FmLsJ77GNiEc2IGIOKO9F5dD8GDX/Kazn1OXvY7cAjKVqmQ58m4Qyb4f1hCsmUP7QZMpjG8gj8Z3YnjbED5fg/Xo53uvxulI7gC8C9+VqppsDxgIuPYF/QwVxa+M81xG94M1jKM8ZizxtGLKHl4NFx4ogXtgK963Fu3ct3tLdsR36SdT0j1BH7MqQ6dKAsYDLMcD3UTVsY7NjBiA/OZ3yRaMpi7zyS2h7ZgveTQvx5m6KJV7WCHwcVSoih0x3AIxFvOVY4D9Q5Sfr4jjH6QOR7zgcecpQyscOAkGuVlzb8kbEvC14d65EPLEZUY72Cj8O/Ah4LhxnulaH7HKAsVAtVwOfIKYi2bOHIT89nfJpwyjnCIjPFu/C+/qLeH9ZjYj4wv8Ulcpg3bG6kprpUoAxhEsP4D+BD0R9Xh4wZyzyY0dTnjEoB0uS9loj4juLKPxhZaQjUIuAL6BWSejWkOkygDGEy1TgJlR1/sisIOCDkylfN43yiF65C5Qm292GuH0Z3lcX4kUEmhLwG+AWLFdF6AqQ6RKAMYTLW4D/IeIyCueNQn5jJqXx+RBzqm17C+LzCyj8enlkAeG/o0aait0RMpkHjAFc+qKi/e8gwqS5c0Yhr5tGefawfEQoS7ZoJ+Jbr1D4wypEBD1iPnA9lisgZBkymQaMAVz6Az+P0iXq2wO+PoPSOyfmMZYs26Mb8a59msI69wvatqDyq+Z2J8hkFjAGcDkF+AYwLIrzqC/ANVMpX3cU5b61uTvUFaylhLhtKd4tL+PtaHG66zbgVlR94NbuAJnMAcYw3nIWcFtU53LVROQPTrXzrXPLhn3rFQpfeh7PcS/ZDLwXWN7V1UymAGMAl/ZiUP9JBIlz0wcib5xB+fThlPMwS9e3V3bi3TAf7+GNTgPB+1HFyv7SlSGTGcAYwKXed4kudH0OvQpw/bGUPzKVck0+T6hbmZRwx0oKX1iAt8VtyYgPAQ93VchkAjA+XHSeHv1RdVWnuj6HE4bAL0+nOKp3DpbubHuKiKvnUrh/nTM1U0KNMNkqmVRXQE49YAzgMhwVPJvm8vi9a+G6aUq19KzJ4ZKbmr396+V4X34ez2EBrO8AP8B8ioFMs5JJNWD8SYs6rtFY4Hc4XtzME3D3eZROH54PPef2RluzB3HqPdQ0uVsB+3fA500hk2YV46X8Huqc3yhUBXincDlhMPKpiynmcMmt4lOtAfnsJRTPH+1M2V4JfB3DibdCiIKD5Y27l4IRQuim8v8aOMnlsc8egfzt2ZTqCt3TJSqDaC1BS+mNj9IagexRQOTFsA6+Xh95msKv3E03mItKyjPKlUmjkkkdYAzcolHAzcCJro49vg985QRK549CZg0uUqoJfBv3wrpm2LwXNu2HjfsQ2/bBzhYoygOysIQCSFMbNBeRe4uIljIUS9CqNFvV7y8UbKivgZ4F6FWjXr1roO6QR0PPGhhaD4PqYVAdDK5XJUGH9YTRDTCwR/ZhVQYxdyPiCwvwFu5wApqXgWuAjaankqaaMqkCjAFcxqFS/8e4OvblE5A3z6SU5sbeUoQ1exHLdsHqZljXjHhlB6xphg3N0KLnzKXh+x3UAfv1gDG9YXRvBZwxvZCH9YGxDTBtANRmSC3tLyFuWoj3g8V4pfBnvRZ4E4YLwKVJyaQNMDpu0SjgLmCAq+N+djrl648hdfJyyz54eD3i0U2IF7fDa41g2GizpAw6ferXF2DKADh+oIqLHT8YJveLdjVKF/a7lRQ+9KSTDOCnUfWhM+kupQYwmnAZiAroTnHVon88m9IV45Od+VyUsGwX4uWd8NJOxMvbYfEusBwCtb2hMi5ohP1crwJMHgDHD4aTBiOPGQhH9EPWpAw6T2zGe9/jFLaFH8q+F/gv37PNFGRSARhNuDSglvE8wtVxvzqD8jVTk1Eue4vwxCbEb1chHt8A2+0n1cmEIRIHfAK37VWA2SPgnJHIM4bD5P7p+K73rMF792MUHJzMPT5kMjWEnThgNBPpCqgFyc921bK/eDzl646KDy7bWxBzN8I/tiGe3gwv7TB2d2xhkQU3STjejjENcOIQOGs4ctZwmNCQnFt15yq8a5+isD98wsMvUJUYc8A4Vi8f9ukd2gpCuUWXj48+v2V/CXHHSsRvl8NzW3FxQBkRTGQK4GH6GaP9TugDF42By8YjTxgUP2zmb8e79AEKDpLyvoYqLJ4JyCQKGE24XIQajg69CFp9AX40i9Kl46KBi5SwaBfiofWIRzci5m3+58iOTBFYUjeKFHJbY1SMbYDTh8OZI5BvHgv1MaUkzNuCd9VjTmIy16MGOlIPmcQAowmXM4CfuDjeOaOQvzyDUm/H84me3Yr421rEfWsRnawoKCOCiowJJDIiaESlXKzOoaEWzhgO542GN49FDq6LDjhFENfNo/DL10Jfr/8GfpZ2yCQCGE24DEcFtvqHPd6pQ5F/OpeSq8mKLSXEn9cgbluC+MfW2FwV11BJ4skiHG8vXMOuViDOGw1XT0aeMzya0cWyhGvmUfObcJm/ZdSaXk+mGTKxA0YzmW4AasmHiS6Uy6/PpNQzpAwuSnh2C+KeNYjfr0RUGfWJGy5ZDva6CO46VzTtnxvdC951BPKKCcgj+rq9fmUJ//EMNSGVzF7gEmB1Dhgz9XKLf+FCx1xWXkkxjFvUWkb8YRXi26906gJFCZYkXSQZAzTidJFCB5pPGwY3TKd88jB3oClKmHwntSFLPtzlx2RSqWJiBYwPl6Cb/R7gc2GPVRDws9PtA7ob9yJ+vwrx41cR6/ZG1iGlQ+jYnEecT5e43KNK7zlJ+pvaH644DPmOw5AjHSym9+xWvMsfotAYbnTpq6ghbBPIFLsUYPx8lyDX6Hjgty5a8k9mU7p8gjlcdrcivvMK4vuL1eS/iDqpzF2kxFwkJ8PmArj8MPjmzPCrSczfjnfx/RRCrjD5XmCekZcWQ6GqOAETVOOiF/BH4PCwx7rxBMofnWaWRLdoJ+InS1TeisGNdqUY0ugmmX5exAAbV+6Rs9ycngV42wTktVORU0JkD//xdbwPzKUQosevA64AtqdJxcQCGA24tMu8y8O20JsM0v+lhD+sxvvRqxVHg6KGS+4iuXeRogSNqPbGycPg6knIS8chbWaA/20t3vvmUthvr2SWo1YubUwLZCIHjGbc5dOoZUZC2W2zKb1dwy2SEn6zAu/T8xG7W1MDlqhcpLRPFRAxwyZS0LTbxWPhv2dQHmu4Nvm8LXhz7g+lZOYD7zK475G6SnEAJki9nI5aHC2UxP7sdMqfOJpStbyFsoQ7X8f7zsuIRbsidxlcwCVusMgE4OEKNqmDTEHAtVORHz8GaRKn+ePreB96gkKb/d34HGpicOIqJlLAaKqXXxGy5OWVE5A/nl19hcVntyKum4e3eJf1YWQKwCIjPL80ukoi5aDR2nZoPXzpBOQ7DqPsae79Ky9QuPll65rZTcAFwDZ9xkQzdB0ZYDRHjc5CrdVrXXx8Qh945CKKlSrRLdmFuPllxF2vI0LMXo4LLmkN9qbZRYoCKM4hAzB9EPzX0cg5Y5E1AfekpYS46AFqLGKD7fYCKuVDtxBIJK5SlIAJco0GAg+h6rxY26/PonzxmM6Duk9tRlz6IF5ruMsWBi5ZcpHSUHBKpAg0IqrvefJQuPU0yof1qX7NVzQhjr/LbIWBQ+xmDNZmj8JV8iKCi0627sfCwuXsEcjzRr4xqLtmD+Kapym8+YEuCRep8Z4OfKTB9mGun7Q8L5vv7lJRRuZyPrMFTvoz3if+QaFYrgynw/sgPzAp1Mz/D6NqKZl4HelXMBrq5Xzge4QI7M4YAveeT7HjVPvdrYhbXsG77VXE3lJsOSDSIWxMt+0OLlLccZjYlAyozOAbjkNeOLrziZVSwlWPU/PXNdZ95XfADbptwLWKcQ4YHy7VLkY/1GLffWyPURDwxMUUpw04cNEWbke8fy6FFU1OOlUScEkyJyYtBaeSyn1x6TJZgeAtY5E/nIVs6GTe3NZ9iBl3U7Or1foevAd4Vt9TcgcZp4DxJVaQJPsOcKHtMXrVwu/OOrCc68omxGfmU/j7OjUMnSBcXEvxKEeSsjCKlHRgV0R07hVtcB1cNBb5uenIoT0PvkdLdiEufZCajfusrvka4O3ATs3tS64Cvq4BE1R17njgjjDH+Nx0yp/wlxhZswdx0QMU1uxx1nlcwcX1SFISiXYyQnhE7SZFCRoR8bWgTy38eBZyzpiD4y+/W4H3/57Sj6kcYveh4p66MsbJitueQ7jofPGPhDnGjCFw7VQlVH62DG/m3V0KLtLCdQoCj258xlXQ13ZfYb6L1NxeWt4r6aidaFtTG7zrUbwbnj8YJlccjnzreOv9zgFOddyf41MwGurlHNTKAHauUQHmX0pxYD3825N4d61+wxMijXDJc2LCPeHjirmkUskA4u2HIb99MuX2mkb7S4gT/kzNumar/b2EmhAZm4rxHMEliHZ9UJFsa/vUdMp72uCCv1HoBC6kEC44hkuY4VtbZSINXrZqx+beSNzCW+Lm4eHcfr8Scd59FOZvU22+voD8ygzroetjUHWuY1MxngO4CFRgV1R5XY2qsWtlxw1WC63P+iuFF3ck8lS2aXzSUrKbAkeG6MA4hIbtfsLmvsgQ/4tCobpsmxJg0S449z4Kn19AobWMuGwcpYvHWO/3k6gVOoTGKzRgQrtI/rC0F6BeHiVEUt3ZI5CPbIzkJsqI4BK2Idu4TpBsdm9aK9ZF4Q7ZuEtOSolOHwh3nkOpsQ1Oupsay+kvN6O/tlIxzIiSCxcpaB8fDwOXgoBuCBeXAV8dJRGlgrF1kVwEdm2hHYV75ERlL9wB599Poa2sVie13M2/A0M1t62JEg5hfbQG4MowxyhJZzOIk4aLrdsUtK2p+1QNAtLhS+d4OjEiafj9w7intn+HgZtxe13VBCf/hcL2FjhpiNU+e/uukomXkoiCCQLMlXQNi0LJhHkq2wQ/bTo3BqDAYN86QMHwe+vcM5nAfY3sofjtVxA7Wqzb9AXApKg5YR2D8dVLTcBJPUyI4K5Fo4pDvcTRSOOa0OdUvhvGHsKWTogzmc7k7yjjMa4XmnsG/UqSbTaxmDAKJki9XJHDJRYlo+simKgIW3fJJAbkYmQtqdGipHKRXD8ITgaOjDIWYwUYf85RNWr2B/4rIrjQReBi2xlMwRLkssSZydvZ/6WD+FTS7lHcw9cu93Wmfrc3L+dgq2CC1MslhJgtHcHFTLtb5OoJb9J5owzw2hyz2t8ur1WaIJOGB++VBi5WIS7AeAF+4ttS5hpFeRPjisHogMW1mwThsnhNjlvt7zBqL23uUdpUzAj0lwvyTFWMMWA0hqyOQj86nRZY2KqVOJQMGh0xKjfJZBpFWBVjA5oww9RxQCVuFWN7vP8wiLFECxj/RKqlF38gY+rFpIGE2dZWyejAxLTTBqkXF26Rroox+dtlzENGdK/TvPhdJRuMqhejM33AKNhrNEztq5dqBxiKGpoupAQwYdRL0jEZ03N0ORxuc81dVKPTHf7V/Yzrv129Z3P9bK+pri1HxU51rKhb9c5UwQSB4/0pggsh4OJS5bj6u9IT3dblCEq6czFVQFfJ2Ci2uK6/C3c5CwHficAUAy/GrYukMTQ9GPiXjMVeXPvVUcJFp6O5GE1y6SK5GD3SAauMEDoyJsikwVX6FwMeFJwCRkOZnIuaBt5dXaOo5rYEdaiwo0mmcRSbbXWOj+X3lDHdDxcPoLgUie1+LjTow1qAqXEImAvJjuk+WYrAPxxI6yHAhBAxFpP3db5fHDAXFbYRh/yv0t8LgTaNGEfQVIATOrRz2cl56f5t8l61ayUiaMuu9tmASjH5rStxohXk9eVQjyqbDEet0igcdPiwjd6lemkCznNw4y4GrjeAgQ1kXILGFjZha7h0/PudwHYH1/4vqKVydI976N82gWeT90yvY5jrq2OvAxdpbtsatKa1rosUpHSuxD2Zo/JLXQ59hv0+ruBikzsSZmZ1te8XZu5RXMHQKPJc0ry4nYmNR5XW1LFAd0oXMF6ArHp/Cl2fMMCKEy468RadGIROoNRkXpCLaQKm2xEScNWue1TBWhcpBGmLxegGewPnJ9Vo7CGIUqcTrupVUtMCknz6SM2OENZlCusm6V4bEfC5zuIxokIsw1ba28QrqsUvbN8jZJwmDbGY2X6fLlreeyMFEwSPczKuXuLOX6gGC1NVE6RwTNykKKYK6Byv0vm6vN5RjxLatJk0D1sPAN6iuW3BhYtUzYZGAAWZEIySUE3SQK1IAwjpQieKWdW6IEsqDhP13KKw8IlCGZvaWx2ET6q/2SG5rtKrN/rZf1mIvUQJGxdw0dkX2E8QdFUY3AQ2BCi0qOIwLhLkpEP4pM2mA6MInpvk+UsXWSmYoNyXM4CeMcMiqidZ3KUgwsJFV8HgwE0KAx5d96gaAKO43rbKRcbYtpIG0Glh3aSwgJmTYpCkSb2EfdrqxmBsOrCrWdUmKkbnPJNuGzIjEIjSTTolLGCCArjVANQLFW3OktkMKcapXmzUTRCUdL+jjKBhi07eE1X+FkQXWBed/AS7bN2wo0gm+4p69KmazQwbh/GqxF+C1MtphFyUKSMuVVJwMY0lmCgYDGIyLiY7EqBioryXptc57YHcOK0fKs4aZKISL7wA2VMtuDM7Aii4nhYgQ/yetHKplpQGZglrpglxYVyksMl1UbhKplB3OQSdRLtzqVDfRIh1rIMAU82Op2tb0rAxic+A/UzrahAiJFhMYy9JwMU0HpOka52Ena25XY0pYKq91x8Yl9F4S1I30XYSpmkynk5HsKnbW+2cw9TbTdrNSGuRs7SomFOAek03SWhBRCP+Mg33M6fjqmUqU9C4dJ+mLoK+LpLwwsxBIgXuka2KkYZtKAww05rZWwscrbltQVelBAHmaLqHJRF0DAMX2+xeV5AJgkmS7oau2kujm5K0HaW5naflNxGcHzMto+5Rko1bOoROGFWj28lMr4PuEHOlYelDf4+zrVQawtb5XNjfK+0zTXa0a8AUAr7olAiBkJSyiBN8YVPiZUyQwQIa1UBS6X9Rd65KENHp6FGfYxzfO6zphkSCXSR/aRIRQLNhKXI5XKqaJCETh+tk+irHuB24KXrlCsZh2nNULpd03A90bSSqEFXgg+bQ+K1n4R4dl1H3KOrPhrmxLiFjm2PjqmiUzXZxXXtp8J7pA0mGaFNZSNQ7QnO70IA5ltyicJGiUjAmSXt08jkC9gV6iXSm7lqc9yFL7ndS5zfFBjA1FoCZnsELnKZRAps4jOmwtomaCXp6V/ufbuzFNG4jIrrelfYfJhYTJpAbR1DX5Pu6UDBeGAUzALUEh0swyIjg40qypsFFsrmmtsrHJB5i4wKZuHdxP6iirkeTdpVSzXQTa0VFBeNn4gkHB+lqLk0SEt1VHMbFiJONmQ5bRzlMraNekh4iTusQdbuNRy1d1BZ4Q4UotC9nUlPNf0ohYLpy+rbrPJkysAPYDOwG9gB7gRa/kZT97WpRqeC9gL7AINQoYZ3B9eisaHelIeqgIeu4Jv5VgspmYB2wzb9ue1HFr2tQK2gMAkb4Ha4h49AwtWmoBfF03CQrwByWcRUiU3Q+JuolCCo7gdeAVcAaYL3fUVosz9FDrTU+HhVzmwoMjEDFxAWZalDZBjwNLABe9aGs+93GoKo6zuJA8mkcsZekwDXFADDYAGZCihVJmlO/pYV6qfZeCZgPPAo8G8F3KQNb/NdzHdrK6ailRRs0G3yl/+uAJ2q4PA/8rw9l232uAX7pv+r9a/Ne9GqoBIHHJURc7WsmcIfGdoVKgAkaQRqZx1kig6EObF4CnkCtl70z5nMuAo/4QDsLuADoY+EegV5luahsK/A9/3u4tP3Ar4EHfchcTDoKsrmEjq4HIyoBJuiAwzPUidPoTumm5R/6cwHwC/+JmbQ1A38FngL+DZgU4P7ouj5RBXk7HnMp8AVgV4TXZwtwM/A48FU/ttVV4jPjfHVS0nWR/vmLxhIlDaggYFaVRlpiMabHvgv4ckrg0tF2Al/r4KLpLGVbTalFfX8eAP4rYrh0tOeA96ACxll70FazEehVuHuDSxTkHo3KXZ5Yz7n9f4NS/J3KwI/9eNChUAnK8oXg0g6u7DHg2+gtherSNgCfB1ojaLNJtQktDrTPSfIM3KPRGYSKzAhEqj3Zj0q5lC4Bt6LiQmGS6aJSMC8At3BgWD5uWwp8ScOtiLrNutqvrhfjmSqYrhjgTcqFMonFDMD96F0USuYnwGrM5j0Frfbowv43AeVyqD0KfAqNJLUMqPFxtoAJekoOddCZsubKxJ0yXun9ozJwrVqB/8Ouyl6Quglju1NyfZ4CfpMBVR1kDZrbic4AU+2VZQWTRsiZLIFxYkau8yrgdvRmVselYNJktwMPZ/y7DkUvyGvsIg3qgq5QVmIxU9Cr7J4GmwusqOIO6SiYrmr7UUPXuzL8HXSLzXlwcB5MkIvUj9ySsgJwkt95da0vKuI/xP+9zt9P0W/oO4FNwNoIYhSPopKyOsttqZRQJ7qJitnnu0r/HvAQMq0LHJfV2QImyPp3E6USZxTfpB7uqQGA6Q0cg1oQbwoqOKxT9X+Hv9+HUBP7XNgC4F2+6grK9E1Dp4nb/gS8j4OT8LLyvXuZbGyiYBoyAIuukjHc2f+m+x12f4f/1aJS9o9DZdTWEFyK8tC/BwCXoCbt/Rl40sF1bPX3cy762blxryhQB5yMmqg4CjXtoeS7L2uBV4B5QGMEx25GzV/6UAbhqCs0hAlgalC1ILqqyZTsv9p2PVAF1/8BjAXOB07znyjVFp+H4JwT6Xewd6Omg9zpyE06p4LrE+QiRWk9gHcAl/nXThxy/NH+dZ6DGn7/nQ+DFsfncQdwpQ/4LNlADGa8HwqYSje5ntySAlnHz5zku0DnVlAkJseuBKRzUOUL1of8rptREwuHdAKRIBcpSrh8AThB0zUp+K7eLOB61DwjV9biq7w3Z6wNt48QBSYuCiE83TyYHjkbUmFnA+dpgEQavNfZ/05zdL6vp0hVDgC+4QPaNB9pHGoCo2u18VRG22Gt7oae5nYFxyeYVKwkS0lOpjOvTY4TBBpXiX0rQ8LPldUA/wNMDHGfxgHfxW0Jhicz1mbbraeu2vEMblBu2XK9dDpspc+5CuhvDTiXuDrPBwhOFNU5lzHAhx2eV5HgiZCZVjA5OLKhZsJ+rhpsGlH1evf7jd1lo99B8PBr1KNHIxzHOS4H7kaNNLlSeZMz1l61PRqTYercsgmh7aiaJBtRQcrtqCS7najh0lKE59yYgut2ZgT7vBg1g9yFrcggYGo1eSFq4J/LlVSzct6/M2PbgJdRZQKWoUZzkrLmAGDG8VCLYqLoBag6OC7gvCKDbUw3tKIUjJRSBjAmB0zyVi33oIwakfi7L7nTEhgsBnyfVHUGAxuAypVZ6GBfGzPYFrWnlui6SK15/04MHtWsBfg9KtW/McPfPYs20xFgtmbwu5d075tukLctZ0Dq7DlUIfBtGQCI0NgmayA7xtF+sjizWlfBSF3AtPrUKji82TKhxi5T1PFMFyWTqHoi7a5Q1pWKSJGSsVkMvobwM9F3kz3bb+MiBV3kRrI3b6IrWRmV6DU3w9+WWqEdAAAgAElEQVQhSM2IGM/Ddtv2v+tQ87fCrk+1L4MuZKvmeUmTAFhT3scTkenCb8SfyyhcRIVOKgKukauOVRPhferjKJ6RxYedlnUETJDrsDPnQyIA2uXDZUkX/G6iCoBcWa3Feelad5yjt083zCClLJsAZnuuLJzt3yT28DPU+jpd4doK4pf8tRG2AxfxvELG7qcRB0xiMDsSbqTS4XZR7yPsftu3fY0Di89HaR6qNkpPv0MWUNXttjv87kGgiQo+tRE+SFyMrvaI6SHnypo0z7V8KGCCGv82smVpGjHSOcdDz7cNVSJgfwTHHYgqW3CY/xrcSTuYD/woAgUTBBXXoKm1OC/dDr/Hwfn1TkBRhzHdwlvyUMAEBW425SGSWKFzP24LHA0GZqOKLY3i4KHvjqUfOi5W7/I7iQTUSztgwowaQeeB5zJukhv7hryucZsuVDtVMNVOeHUX68BpOv6h/2tBVZ53YYOA64DxvLHwd1wJbqLK71HnwtRG1Clfw81qDMMy1n/W2bpIQQpmY0Y7dLVz0El2SwI0f8dNhf+BwH9zoG7voeqk0u+uvycBMZgoA8FtVVyiMBnGix2d3/CE+4Wp6bbLMhw8TB0EmJ24zYVJs58pYtxvZ/+7x8GxPOCjvo8vOulU1dSEiOB7V1IsImI3abvmPTE99hOOzm8c2TLdEc1SZ4AJWg5yS8YuhkgBVExBsxE3JRaOQS1lEvTkrgYe199VJKBg9lvc4yC3rRF4wdH5HRZTm3S1r63oLR1bMlUwkGxtkTANIq2w6+x/qxwdb2aAgqjWOHTbg6l6IQEFswX9eVC60xiecnh9jrBsv0m1c93AthVgNqSsg2bRJQtq7K6u8YSAjh30c08E31lXwbi0pyzbQbXt7nd4fllbMVVrsEdKeXAMxv9HUDB2fcY7d5rOpxJoXCU09qvimlSLybS/1kUUfwkaVXJ9f+b7qlAY3INq9izwoqNzG5ExuDQTPDnzILHidSJrqknn9XRti9rV0mnQrpSDrAISAjq9RJXdjEq9EKOCKaISFkshwQJqkOMm3I2KzsjYQ/ZVDfdadLzWXic3o5otzyAo0qBmBPrB1qKjY25BLxjX2esx3E1uNT12R8i5slXAV+i8MqNOYp3w4fJJ3NZveRPBs8rTpNiXmsRfOgNM0NyKTbidVR3HRRQJggWLBu1qhu7zVVyPaipmC2o95ii+s+5QucB9Heh5wDUcCKLrAr8dUB8FFjk8n2mo6RppDiUcaovCAqao8XRZnOAXFDFAKOmiR30c7f+xDk9sHcXQfv9/oOln2ygYExcpikLza4GPcSCHRcdVugu4GvfV/69OyYPZxF7RVKH/VOEHzaaWUrYFr2DCy7hbu7i7WcdM2s6yaCXuUscbgZ+jViKUFY7d8eca1Fo/a2JUL9UUVlTZ3/t8d+kI4AzgZFSwtd6H2i5UgPsV1NKuSyM4l0nAqRlru3vQn11f6hQwHZ5i1aqALcxAB3bVSEVE51btPZeZnQ+jRpPexoFJf4fCpRmVOXwv0RR3103qEzEoGDoAfZn/uq1DXygRz7SWf0mRKtE17eVwpJTFaoApUb1Iz1K/IdY66mBxzFWqBJ4kzunQTn7oe66KSbfbn4BHgek+vPr7x93pq5UFRF8OVVj8LMbcgeI63mTgPAOXPQpXXFgCRudzBwXSaywudCsq6DUpBSolC/s1BU4DcBzwD4fH2OlDJqn7ZfOzKy6VUwvcSLg14ZNSOrqu80H3zbMk+dKM3NC0JvhVC3gCXNqFOpVOol1n7pGk69l7gLEZPXfdPh8ImFaCo8TzUtzhTUeK4kr4CoJKx/8d30FGd1XAVBuiDuuuDEjhNfhP4IMJtDsXfbAFNbgTeC+llPuqAkZKWSJ4KYXFKbhhXekJ39nPK8leQehqgAG94K6LeMhbgIkpugaXAVdkuN0vQy/o/ob75lUhVjXbhtsSmlGphbBKJ8k4xCj/iSe6CGCC5iF13D5s/KUfcC3mAxFR2AxUkl4SisXVvnUFRZsrwIDbrMa41E6SWb06LtKh278FNeqQhPX2ZX1Ya6V6WYbOfncBmCnAxxMGdB/g0+hnZ6f1YaLb140AE+Rvveigw6dVLoqYbrjQAM+HUMuJxGlDUcloxzvY1+4qYKmkZlpDHrOvv5+zSC6WdRRwOzCyC4QFlqCXwasHGL90Q5Af/GJEnTrq/SUVXKsGkWqu0pHAp2KMx/QHvoga7XABtkbM6vG6UjDt+/socErMHfIi4PscKMcgUtL+bY6xHr163FJK2aqrYNB4iryOKp+XNTcp6XOw+XkScAvR1m8VwInA11CFqNtB0CvkfndYKJiWkMfsy8GL1N8I/Cvh8k90bBzwdeCz/nFtXfY02eOa23V6z7yAD1STQxK4L+VuUpgZ1iJlkDkS+C4q8DvQ8Tkd43fCz6DmQnW8z1NC7n891fNeOvs9zGTLAgcX22pv51cB/wecH9DubWwC8GXUUjOzI1DJSYLoQU33qNN7Vo3oOisK/h54t8MbFkeKvskxC4fEIWzOTfruhunyt5397AG81X+tAu7Avrr9ID8+cUkVlSKBMwm3umQr+mtzt//ew49hmHQw0cE9KlSA9HDf3fw4quzlH7Ff76u/7wpdjZooGQYaaXWPQG8WuZRSdrqciZCycpsXQgwjeKjvJ9hPG5Ca/7PZT2fvSc33TH/XfU9W2FZW2UfQZ1ehkqBWoGYBb/PjHu0ubk/UaMZAVMBxnK+GJlV5MMgYGrjQeM9mRQRTtfgyaub0Cl9tbUHNzWrzr0NPH1pDfKUy0Vd1kztcP9PvUu3/LsDgCjBLOTg5sKK3I6Xcaqpg2t2koCE2VzVko4wthJlhbTpRUkctHfp+Z/+vpmTo8PsE/2ULw87+FprQsQlemqqZoA6jW5Gu0meO8V+H/r9SyVGTzpq2YmemtkDzXCvGzDzbD3aw+THIuyjhE+YcRIiOY1Kr1uSJHhTfqBYL6WxxNBxsY7roWtBaSsLwPSxA4WG+nEmSI5RRuEfPam4XKWCeSYlKSQIqtu9FARndhq678LxNLV809q276JrAvVtk67K5fACmdTHAQ60ZeEkz/mIHmPa1TQJsHSoRJwkF4fpG6T6BbBujzramqy+aKBgdRREEDQxghObxwyoYXWgLi/sZRqVGDasoIfU39OYfVR0A0Bn92avx1PpVBvzJsA3Adjuh2SlNpL/OQmau3CNT5RLWTQpaw8l04mScijRp9eIKWBI1wqZz70MDRmednqdRtUyTjLnEvR8RwXsmsj5IwcTtHkXlJpl8d5P/ub5vUcImbluMXvYuBGT8BwLG96+CUrfLqLquSUs7kyG/sNLX9L2gDqWz2iKa6sNWGdi4STb1XsB+xccoVF4UrpGtanbZ9m0hprs0bpmAjH/dBLl9Gg3pQbJnrmWuCLFtmCexMACbzv9MIKLr/tmoLFcKxvSeCst7GrZtpcHKqPKqOmq1OShOqwuYvRrbrMV+xQGXwV7hCBDCUQMMO5Sts1iZiWrRhY0rN0m3VKbpcLvNNQoLEOEAIllQL82a2waGT7QA48+S1KkyloVgbxQuW5jgnUn8wVa16MZEBG6GYXXVSxQKJmkFGsY1SoP9QXO7VillmxPA+Nao8eR6Hvu5HXGuxeva97bp5Dp/2yqYIEWjC4Ko1UsUCkZXubhUK64gkrR6WYyqkqBzn3W8Gn3ASCmbCK7VC3B3jMohqvhLXO6R6dPbhXsksHePsNw+bG6MSQKebqcL80AIq2TSaiYDNXucAsYgFvMQ9kWb44zFpM3NsnGZ4naPbEeWTMEaZgUIU7fM1E2KCihJt9dW1HrmOtbsLw7gHDA6wZ896BepSbpDp8UdsnWZ0uYemQDM5G+T7x0mBhY2fpakCg97rEfRL/TVqLtTI8BIKfejMveCGtjtEUAhibTqMLJZOICKbYdz6R7pXjcTN8n0fHWUjalScvngCBuTSYNC/6Xmw2N/tblHYRUM6GXsric9eTEiBFTCKBlCNnDT89FVBEFgMYGHzcxrUzVjmiBnoxrDqtAwHT/OwY1K9gj6mbt7THZsDBhfxehUff8pekHhNKiYJBuQLWSEIVh0YymuXSRCxmPCqD4XbcbVAyitrpH0+6qOldHPkbFWMO0UC2pk2wyCRkmrmDCBP2EBFNuOogMaV+6R7XUO6yYFAdQEJGHiXVG3g7jc/iB7Etis+eDYLauVwHQImCb0pnL/KgIoiJggE+UQtIlysYGPC/fIdXDXdtjaxfWwgU1UQ9fO23FDuPUr/6a5XVFKaTyh2Qow/vwDHV9sLbCd7FoYyNjuT1f+hgls2rhHhNxeODhnW1fB9rq7cKkjVeKT+sHhfayPvxdVk1hXVBALYDocUOep9oMMqxgXEjpK5aILERfuUVjomLpJpt85DFxs40KJukYNtXDZOOSL9lWxf4HeqHD8gPGHqnQS754AXk0orhKHfBWOIBbmCR0GQFHXg3EJEBeuZJRtLjbXaEAdPHAhpWe2WO9vE/BnXaUjpSzGChjftmnGYm7V3M70hsQZj3H5t6v/2bgiUc6iNqkJ4/I72SpJ24xinfcja68zh8Ijcygt240IAZhb0V9hY6ctIEIBxp9N2arRwJYAf01ArUT9tBEh/w77Px0A29ZtcXF9TWrN2Lynq2Rcx1CSisFw9gjkXedS6lMD18yj0GL32F4EzNN8ODSZJNa5VjAmvtkviGYNpahvrtBs8LY+vo3sF4Yg0e3wrlVL2DgOhtfFVUzG1WiSU/Xy4SnIO8+h3LsGedOLFJrbrPbXCnzTYPtQfTY0YKSUjejNYdiDfkJPmlRMUKNymaHrMuZiU+oySgUTZiKlwP0IGxH8HQlcRvSCP5xL+esnUqrxkHM34f1imfU+/4Qa3dWx/baxF5cKBmCr5nYPo5Y5sbrSdV4k8Imqkbh2j6JwkeJWMDbnZwNYV0omrnhfRTu8L9x/IaXzRqoYpgTxmX9QsFzbtwX9glKhYi9OAeNPH9ir0egklhMhJTBtIMwZkyhkTKS0iXvkYnjWhYsUtQmLcyXEtYlSyUTums8cCnMvpjS+4UAw9vML8F627/Z/RD+9pEVK2ZwKwBj6ak+g1rw1tue3Ic4fRflbJ1Ou8xLtIEkrF5sh4SSA47LWTBQ5MVEql1CfvXA08q/nU2qoOQCXRzfifW+RdZ9tBO402H6LiwbgrJv6KkYn4CuBWzCoKdHRblpI4byRyEfmUJo9PDEVk4RysQGeCUCiGp524SKlSclEGnfp3wNuPgn5qzMp9/AOwKWpDfHJ5yiEaN/fQLPMJSFHjg66CIZzl4J3KMQEQGd2xInAl22O0acWnr2E4qjeyLtX433wCbxDhuvCfCkZYlupsS9pcExpcY4you/qQs242FY4+H/UQ9nC5uJcOxV5w/HIjmABaC4iTruHmlVN1tf+DoPQRBlYqblsdKwuUrvpzj2aD/zd5gBNbXDdsxTKIN4yjvLjF1OaMwYp3CkZF6NLccRcXLolUa0q4Mpdi1LJJAqXqf3hL+dT/sqMg1VLu92wgEIIuGz2Yy/a27uCSyQKxlcxY4GeGpsWgB8Bo2yOc9VE5PdOpeT5T+KnNiG+tJDCs1ucPaFliO2k5r5cKBrdc41TsbjoiGlUMs7A4gm4ZSbyfZOQXoV7891FFD6/IJQQ+H/oD0s3SSk3uLzJUYVKt2luV0J/mco32K+WI+ZuPHBjTxuOfOBCit87hbI/hV0k2FmieAraZsTaqJsorpGporF5L0ol48yG1sNd51J+/yTKleCyvQUREi4vGsDFpN8mCxgp5V5gN3qBwL8Ar9ge6wsvUNhfOrghvOcIygsvpfThKaGf2DY5HS5cJrDP2nW9rnRY1yhqFynoGrr8X9g2Qq8CXH808oW3Uj5zROX2WQZxzdOhgrqtwI/RD8jv9hdYTD9gfNuC3vIlbcBNWE4HX7gNblr4xu8xpCfy6ydS+tnpyMF1iUr/KJPpwqqBsNAIo4aiVDNhpw5EolwuHI188a2UP3sc5Y7Dz53Zz5ci/rY21Hn8L7DKwMXfFklniCIG0yEW0w8Yobn5mcD1NscpCLj1VEpXHt75jO3mIuK2JYhbX0Vs2hdLTMYktuJyBMkmzhJHXCbqOsYu4i9RnCcApwyFjx9N+ZyRSKHxiWe24F3+MIWmNuvr/QxqhFb33m6UUu7OHGB8yBxpoJS+BMywbcH3XEBp9rDKZSFay/DNV/BueQnRWo4cMFEDJeqgrowBJKaftY1NuYaL0N3ophnIf59CWWjufUUTYtZfqdlrD5cW4APoJ77ukVKujaz/xwCYnsBYTcgMAD4DTLU51pB6+NbJlN48tnrtmS37EM9thduW4j22MfOgMT2nNIwkuRqZiUrJhDr34wbBB49EnjwMeXgf/eu9cDviPXOpWW0/JC195fKswWdW+Umy2QSMD5kBBq5SPXAzMMG25d42m/IVE/SWTHlwPeJny/DuX2tcEUtaNgAXQJExnVvcrlEYqEQNlqqfqfPgojHID01WYDHd8VOb8d72EIV9pVBw+QZmq6pulFLujLTvxwEYHzJjgQbNzQ9H1aywiqLXF+De8ynNGKLPjDV7EDe9iPe7FcY9zVXMozvkvkThHrlykayPf9YI+NbJlCf0sbvW65oRZ95LzdZwOuJeVJU6XdsjpVwT+Y2NETA1virRXWThVOCTtpDpUwt3nkPplKFmwuT1PYjfrkD8fJlRQDhqNeNatciUwyROF8nqHDwBF4yGTx1D+diBesHbzmx5I+LSB6lZG27e8go/tKC7l/bpAK1dBjA+ZPoCYww+chVwpe3xhtTDkrdTrLHoUK1lxJ0rETe+oA0al25JV3CPsuAmGZ9HQcC7Dkd+8ljk6N7hr9tJd1O7NNz4zS7gGswmD6+RUjbF0ufjBEwHV6mP5ua1qKkEQ2yP9+4jkN89maJn+YTZU0Q8sA7++Dreg+tAowaq6w6eu0juXSTjc5rSD95/JPKtE5CD69xc05tfpvCVF0Lnot0MzDXYfqfr6QBpA0wNcAT6Q9fDge8AvWyP+a6JyO+fYg+ZdtvRirh9GeL7ixHb9kfSqePIfcnSKFIUbpLR8S4cDR+bRnnmUHs3qDP73iIKn1sQGi4LUKkduve0CLzmcjJj6gDjQ6Y3MN6gEcwEPk2IzOOwSqajtZQQT2yGv6xWbtTekvOOnIRqScsoUlQukvZxp/WHi8chLxmLnNbfLVgAvvEyhS+HVy5Lgc+jFk4zcY0aY+3rSQDGh0wvVNBX9/ZN9mnd0/aYQ+rhV2dSOnkoTgne1IZ4dAM8sB7xwHrE5n2xwcZk32l0lUQMwAn84PTBiPNGIM8fg5wxyD1Q2m15I+Kdj1KzNHzO7AvAjYDuoHYZle+yL/YbnBRgfMj0xyzoO9W/sNbLffethbvPp3T8ICKRiUUQz21RI1F3vQ6Nbc46eBanCIQFQWRgGVQHbxuP/NjRMLJX9NdifTPigvtDjxaBqu/yn+itDd9uG6SUiawRnyhgfMiMRz/oCzDbv8DWErNnAW6dRemycUTqixbLMHcTYu4mxJObEQu24sL5jVOxyAjhYbsPYXvPjx8Ms4Yh3zQGjh2I9GIqWPH0Zrz3Pk5hS/h82Y3AZ9Ev6gYqqLsusf6dAsDUYRb0BTgDuC5Mo/YE/OZMSm8aQ2wBr+0tiAfXw9/XIh7coCrzZQg2aXeT3mA9PHjLeLhsLPLMkdC7Jv7r8MIOvDl/p7A3/L1uAT6OWX2XkpRyUaI3N2nA+JBpQAV9TSBzMWpSl7X1LMCfz6Vok9rtQt0s2oWYu1GtlvDMVtiwNxbYJAUeEfVnxjWoeUDHDUKeOhyOHQB1heTgurIJcelDoeYWtVujHxpYbvi51VHNks4UYHzIDMK8dOYcVElAa/ME/GQ2pbeNj0/JVNS/exHztsCTmxBPbYYlu2OFjavPu6jpq2XDe8JFY1Qlw1nDYFjP9Ci1Z7fgXfaw9fKuHa0M3IB5UbYNUsptiffrtADGh8w4oL/hx64Bzg1z3FoPrptG+RPHUE7yiXeo7SkiXtwOL+2AV3chljfC601K6ch4gZOoshlcBxP7wRF94Yi+yMkD4Mh+MK53dCM+1jSQ8H/LKXxuPp4DFxjgC8BLhp/ZJqVcn4qbmzLAeKjSDv0MPlYAPooK/oayE4cgfzyL0mF90p392lxErG6ClU2weJeaLLd+L6zeA5v2Gsd2Ei84VV9Q6y+P7AWjG2Bsb+TY3jCuj3J5+tZmIhuZHS2qzOV9a51VxLsVeMDUnZJSrkpNn04TYDqAZiQw1PBjs1CB39BlQD84ifLNMyml7eloaq1lxOo9sHGvUj0bmmHLfsS2Fti6H7bvgy37YXcr7C+5OWatgIYeKh1gUD2M7Kl+Du8FI3oiR/aCUb0VUAbVZQMcOvb9xRQ+O99ZCdoyKufrZcPPbY+yeFRXAoyHyo8ZYPjRU4H/AHqEPYdLxiK/eQqlIV2oE1SzIoj9RdjXBvvKKgjdJqGtpH5vvwieUJJRCOhRUO5lDw/qCtBQQNbV0K2suYj40vMUfrTEmWrZjZpftNjwc7uklK+nri+nETAdQDPB0F0CNeR9A9A77PH794C/X0hxcv/uAZnczOEy66/UrHSXfL8f+Byw0vRUgBVxzjHSNS/l93ANKh3apLr9cl9e7gh78F2tcNlD1Px+FV45/nWEckuxPb4J7+z7nMJlParo/SrD9t6Mw6Veu5WC8VVMHXAk5oWn+qByB8a6OI+3jUfeehqlNI0y5Ra/SRBffB7v2684fThvQE1c3GV+OiyJsqZulweMD5kGVBlNG8h8B+jr4jzG9IYvn0DpshTkzOQWvz21Ge9Tz+G9tNOpmp3vt1HTiYhFX7nsSXXfzQJgQkJmCPARLFcq6MzePBZ54wnpH87OzY1tbUH890IKP1uKcHzDFwNfxLjePEVgub+Carr7bVYA40OmHpgEmI5VCB8yp7s6l4KAG0+gfO1USnkX7Lr259V4H5lHodF99dp5wHdRK5uaukWvpV25ZBIwHSBjUnazI2SOB96N+ZSEijZzKPKqicirJlZexDy3bJkE7l2L95MlePO2IPa7fYRsA34OPGfx2SZU0aj9memvWQNMB9BMxHwIGx9M16MKWDmzaQPguyebLZWSW/psZRPiunkUHt8Uyajhq8DXABvXZg8xl7vs7oBpn1Yw2ObjwBXA23A4/FwQ8L4jKF93FOWxDbmayZLtaEX8cBHeDxbj7XXv9JaAvwB/BGycre2omdGZe3hlFjCHKJn+lh8/HbjW9Tl5Aq6dSvmz0ynX58PaqbayhFtfVdX990YTTSuiMnNfsPz8ljgWSMsBUxkwBdToku1Q9CnA+zCflhBoA+rUwlz/Oilds7RzU2D56xq8z86nsKY5ssM0o5ZztS36tFNKuSLT/TPrgOngLo3wXzYuTx/UAm/nEEF284A6eOfhlK+dSjmO+q+5VbZdrYifLsP72VK8dc2RHuox4JeY1c7taJvSNnGx2wKmA2gGAYeF2MV01IzsnlGcX30B3j2R8seOpjwqB02strsN8aNXVYxlV7QLpjYDP0Ql0NmYBF5PQ7GoHDCdQ6aPD5k6y130B96Jw5yZN4DGgzljkW+fQDnOmsDd0RZsx7t9GeLu1ZGDBeAZ4NfAVsvPt6Gyc3d3mf7Y1QDTATRjfJfJ1ob5amZClOfpCbhiPPL6YylN7JurGhe2ZR/im4so/Hyp8xyWSrYK+B9gZ4h9bJZSru5y/bCrAqaDy3R4mF2gYjOXEPHMcw84cahaTXDOGMr5NAQz29aCuHcN3j1rEHM3Ilri0YVF4FfAw5hn5Hbcx5qu4hJ1K8D4kBmGWrEgjI1EDWdPiOu8T1EZwuXLxiOTWG4jCyYl/G0d3s9fw3twnfN5QkG2Cfge5rVbDrWXklhxMQeMW8g0oOIyYYK3Nai4zGXYJfdZ2dCecNFoymeMQM4egRxc171h09SGmLcZ8fgmxL3r8FY1xn4Ku4C7gIcgVPysBbWc6+4u3fe6A2B8yHi+EhkZ0t2pBd4EXIT5fKhwbpRQC7OfNITyKcOQpw5FjurdtYGzrUUtxTvPf724HdGaTFh8DyoT9yEINcFVolZoXJfFzNwcMMGg6YOakV0bcld1qNGm85L8PrOGIS8YjZw9nPL0gelbxsPGVjQiHtmE98h6xN/Wxu76dAaEx4DfoiYbhrE2YJmUsqnb9LfuBhgfMjWoeUxDHezuWNQqk9OS/l69CnD0IOTU/sgj+8Gxg5DHDkxvDKelhFi8G/HydnhlF2LJTsTiXYit6ZkrvAT4DeYrKnZmW4G1UsrWbtXXuiNgOoBmKOFGmTrakcB7gXFp+54T+sC0AcjJ/ZBHKvjIiX3jW6u5pYRY0QjLmxArGhGv7FSvZbtIaxLQRuB2zJcN6czKqFnQO7plH+vOgPEh0+ArmWEuwiS++3UscAZ25STi+d6oKQyjer9xYbOeNdBQA/U10LOA7FGAGuEHroSax1OUUCzBvjJiXxGai3DoMqnNbbBhL2LbfrKQTdgMPA78A3gNN7V9tvqxlv3dtn91d8AcAppJQL2jXdYCFwBvxsESKrlFZvuBe4B7UTkpLqzVVy27u32/ygFzEGRqUNm/IzGv/VvJBqBWnTwDGJ5f5dTYFuAJHyyu4iJlDowQ5aVUc8BUBE2tH0sZitv1kKYApwEnAr3yKx27tfou0EO4Cdy2m0Ql3q2VUrbllzkHjInbNBn7iZOVrIcPmgtwWB84t4q2GXgQldJfdLzvfagK/435Zc4BY6tm2mvNuF55WaBKRBzvq5o8VuPOGoEXfTdoCe4LspeBjWlcDzoHTDZB0wOVOzOMaJaRrQFOAGYDx+RX3NoWA3NRpROiGrzaiiqrkLtDOWCcg6Y3Kj4zMMLD9EYNdU/2odMnv/IVbQeqJOUiHy67IjzWNlQAd09+2XPAxAGbkahJlFEn6BeAoxTauBQAAAIoSURBVIDjfFeqoRtf9ibf9Znv/4w6xaYIrAU2dIe5Qzlg0geZelR8ZjjuYzSVbBiqdMRE1JK4XTlQvBxVEmGN/3MD8SxwV0QFh9dLKVvylp4DJmnQeKgyDqMSUBg1PnBG+/BpH2IfnKFLuN3v0GtRuSQbgNWoRLg4rRE15Lwtz2XJAZNW2PRFFbnqn/Cp1KICxkN9AA2KyaWrZmVUicnt/s/1qFGepCcBNqIWN9uZt+AcMFkBTW9fVQwh4pKbFuAZiUr26++fXw0q36cPKvtY+K8e/nseKhZU8N0HiaqL0ub/XfZfu1C1U/b7721CzfNp9hVKmubllHy1tLU7lVDIAdP1QFNAxWnGEL4OTW7hrcV3wTblQ805YLoSaDxfHQz23ZUcNvFZ0XfLtgE78hGhHDDdATiDULGRPIM3OtuNivNsz6GSA6a7gqYXqkxEP1RMpC/JBmKzahKVJ7MTFQtqlVI255clB0xuBwOn4IOmn+9K5QqnsjX5MNkN7M5jKjlgcrNTOAP91wDSNSIVt5V9mOwAtnTnanE5YHKLAjYeKpGvATWkPBB3VfjSaHv8V5P/2pMnwOWAyS1+l6qf/+rjw6cug1+lzYfJbh8mucuTAya3lEKnFhW76em/6n3o1HEgeS4J96alw2s/sLf9lcMkB0xuXQdAPXzY1HeATm2HV3vWbg0HsnrbX7LDq4zKiC2hck2KvhJpf+1rh0kOkBwwueWWW27O7P8DTO3EsdwMe5IAAAAASUVORK5CYII=;" vertex="1" parent="1">
          <mxGeometry x="60" y="101" width="52" height="52" as="geometry"/>
        </mxCell>
      </root>
    </mxGraphModel>
  </diagram>
</mxfile>
